<svg width="1319" height="438" viewBox="0 0 1319 438" fill="none" xmlns="http://www.w3.org/2000/svg">
<path d="M474.234 22.0234H477.34L480.551 30.543L483.773 22.0234H486.867L481.898 34H479.203L474.234 22.0234ZM490.371 30.4258C490.543 31.5898 491.277 32.1719 492.574 32.1719C493.16 32.1719 493.633 32.0352 493.992 31.7617C494.359 31.4883 494.543 31.1133 494.543 30.6367C494.543 30.2617 494.441 29.9688 494.238 29.7578C494.035 29.5391 493.707 29.3594 493.254 29.2188L491.473 28.7383C490.395 28.4492 489.59 28.0352 489.059 27.4961C488.527 26.957 488.262 26.2227 488.262 25.293C488.262 24.2227 488.66 23.3633 489.457 22.7148C490.262 22.0586 491.277 21.7305 492.504 21.7305C493.754 21.7305 494.738 22.0547 495.457 22.7031C496.184 23.3516 496.617 24.2227 496.758 25.3164H494.18C494.141 24.9023 493.984 24.5547 493.711 24.2734C493.445 23.9922 493.066 23.8516 492.574 23.8516C492.105 23.8516 491.727 23.9688 491.438 24.2031C491.156 24.4297 491.016 24.7422 491.016 25.1406C491.016 25.4922 491.113 25.7578 491.309 25.9375C491.512 26.1094 491.848 26.2695 492.316 26.418L494.449 27.0156C496.355 27.5469 497.309 28.668 497.309 30.3789C497.309 31.1445 497.082 31.832 496.629 32.4414C496.184 33.043 495.602 33.5039 494.883 33.8242C494.172 34.1367 493.41 34.293 492.598 34.293C491.277 34.293 490.184 33.9727 489.316 33.332C488.457 32.6836 487.953 31.7148 487.805 30.4258H490.371Z" fill="#0033FF"/>
<line x1="486.5" x2="486.5" y2="438" stroke="#9AC2E4"/>
<line y1="101.5" x2="1319" y2="101.5" stroke="#9AC2E4"/>
<rect x="687" y="99.0391" width="277.527" height="36" rx="18" transform="rotate(-6.00635 687 99.0391)" fill="#9AC2E4"/>
<path d="M715.413 121.188L712.406 121.504L711.153 109.593L714.066 109.287L714.28 111.314C714.477 110.579 714.911 109.964 715.582 109.469C716.253 108.974 717.058 108.677 717.998 108.578C719.405 108.43 720.549 108.781 721.432 109.631C722.315 110.481 722.836 111.663 722.995 113.178L723.746 120.311L720.739 120.627L720.041 113.996C719.947 113.102 719.663 112.413 719.188 111.929C718.712 111.437 718.042 111.237 717.18 111.327C716.356 111.414 715.717 111.756 715.261 112.354C714.806 112.952 714.623 113.678 714.713 114.533L715.413 121.188ZM728.634 114.8C728.825 115.723 729.244 116.421 729.891 116.895C730.538 117.369 731.378 117.552 732.411 117.443C733.126 117.368 733.741 117.166 734.256 116.836C734.771 116.5 735.15 116.075 735.395 115.562L738.192 115.268C737.872 116.409 737.214 117.393 736.217 118.221C735.227 119.04 734.036 119.523 732.645 119.669C730.656 119.878 729.025 119.457 727.752 118.405C726.486 117.352 725.758 115.912 725.565 114.086C725.376 112.284 725.806 110.734 726.856 109.437C727.905 108.133 729.346 107.384 731.179 107.191C733.029 106.997 734.594 107.425 735.875 108.477C737.164 109.527 737.905 110.973 738.099 112.815L738.202 113.794L728.634 114.8ZM731.465 109.341C730.524 109.44 729.785 109.801 729.245 110.423C728.713 111.037 728.432 111.836 728.402 112.822L735.126 112.114C734.934 111.184 734.513 110.466 733.863 109.961C733.212 109.448 732.412 109.242 731.465 109.341ZM746.99 105.822L750.137 105.491L746.564 111.853L751.518 117.389L748.337 117.723L745.23 114.291L742.917 118.294L739.747 118.627L743.441 112.182L738.611 106.704L741.769 106.372L744.752 109.746L746.99 105.822ZM752.898 101.607L755.905 101.291L756.279 104.845L759.356 104.521L759.617 107.004L756.54 107.328L757.11 112.747C757.176 113.368 757.352 113.809 757.638 114.07C757.933 114.33 758.367 114.429 758.942 114.369C759.3 114.331 759.731 114.211 760.236 114.009L760.49 116.421C760.304 116.527 760.009 116.633 759.604 116.738C759.199 116.844 758.806 116.917 758.425 116.957C757.065 117.1 756.039 116.823 755.345 116.126C754.659 115.428 754.24 114.361 754.089 112.923L753.533 107.644L751.319 107.877L751.058 105.394L753.272 105.162L752.898 101.607ZM761.651 107.968L769.051 107.189L769.331 109.847L761.93 110.625L761.651 107.968ZM776.795 102.392C777.797 102.286 778.699 102.419 779.5 102.791C780.308 103.154 780.896 103.669 781.265 104.337L781.044 102.239L784.005 101.928L785.241 113.676C785.402 115.206 784.915 116.557 783.782 117.729C782.656 118.901 781.169 119.583 779.319 119.778C777.742 119.944 776.358 119.74 775.166 119.166C773.982 118.592 773.091 117.656 772.491 116.36L775.474 116.046C776.204 117.164 777.397 117.635 779.052 117.461C780.116 117.349 780.939 116.988 781.519 116.377C782.098 115.766 782.337 114.971 782.234 113.992L781.99 111.673C781.692 112.348 781.195 112.931 780.5 113.42C779.813 113.909 778.996 114.203 778.048 114.303C776.898 114.424 775.841 114.268 774.876 113.835C773.919 113.402 773.149 112.76 772.564 111.91C771.988 111.06 771.642 110.083 771.526 108.979C771.409 107.876 771.545 106.849 771.932 105.897C772.326 104.936 772.945 104.144 773.791 103.521C774.644 102.889 775.645 102.513 776.795 102.392ZM778.358 111.76C779.368 111.654 780.185 111.242 780.808 110.524C781.44 109.806 781.702 108.938 781.595 107.92C781.487 106.894 781.05 106.096 780.282 105.525C779.522 104.945 778.637 104.708 777.627 104.814C776.586 104.924 775.778 105.343 775.202 106.071C774.634 106.791 774.403 107.656 774.509 108.666C774.615 109.668 775.024 110.461 775.738 111.046C776.451 111.631 777.325 111.869 778.358 111.76ZM790.262 108.316C790.453 109.239 790.873 109.937 791.519 110.411C792.166 110.885 793.006 111.067 794.04 110.959C794.755 110.883 795.37 110.681 795.885 110.352C796.399 110.015 796.779 109.59 797.023 109.078L799.82 108.783C799.501 109.925 798.842 110.909 797.845 111.737C796.855 112.556 795.665 113.038 794.274 113.185C792.285 113.394 790.654 112.972 789.38 111.92C788.115 110.867 787.386 109.428 787.194 107.602C787.004 105.799 787.434 104.25 788.484 102.953C789.533 101.649 790.974 100.9 792.808 100.707C794.657 100.513 796.222 100.941 797.503 101.992C798.792 103.043 799.534 104.489 799.727 106.33L799.83 107.309L790.262 108.316ZM793.093 102.857C792.153 102.956 791.413 103.317 790.874 103.939C790.341 104.553 790.06 105.352 790.03 106.337L796.755 105.63C796.563 104.699 796.142 103.982 795.491 103.477C794.84 102.964 794.041 102.757 793.093 102.857ZM805.921 111.665L802.914 111.981L801.661 100.07L804.575 99.7636L804.788 101.791C804.986 101.056 805.42 100.441 806.09 99.9459C806.761 99.4511 807.566 99.1543 808.507 99.0553C809.913 98.9074 811.057 99.2583 811.94 100.108C812.823 100.958 813.344 102.14 813.504 103.655L814.254 110.788L811.247 111.104L810.549 104.473C810.455 103.579 810.171 102.891 809.696 102.406C809.22 101.914 808.551 101.714 807.688 101.805C806.865 101.891 806.225 102.233 805.769 102.831C805.314 103.429 805.131 104.155 805.221 105.01L805.921 111.665ZM824.521 106.114C824.813 107.253 825.604 107.755 826.894 107.62C827.477 107.558 827.933 107.373 828.262 107.063C828.598 106.753 828.741 106.361 828.692 105.887C828.652 105.514 828.521 105.233 828.297 105.045C828.072 104.848 827.727 104.704 827.261 104.612L825.439 104.32C824.337 104.146 823.493 103.818 822.909 103.337C822.324 102.857 821.983 102.154 821.886 101.23C821.774 100.165 822.08 99.269 822.805 98.5408C823.536 97.8039 824.512 97.3713 825.732 97.243C826.975 97.1122 827.988 97.3316 828.77 97.9013C829.561 98.4701 830.083 99.2911 830.338 100.364L827.774 100.634C827.691 100.226 827.5 99.8968 827.198 99.6457C826.905 99.3938 826.513 99.2936 826.024 99.3451C825.557 99.3941 825.193 99.5503 824.93 99.8136C824.674 100.068 824.567 100.394 824.608 100.79C824.645 101.14 824.77 101.394 824.983 101.552C825.203 101.702 825.554 101.826 826.036 101.924L828.219 102.296C830.171 102.624 831.236 103.64 831.415 105.341C831.495 106.103 831.342 106.81 830.955 107.463C830.575 108.108 830.044 108.628 829.363 109.021C828.689 109.407 827.948 109.642 827.139 109.727C825.826 109.865 824.705 109.661 823.776 109.114C822.853 108.559 822.251 107.649 821.968 106.382L824.521 106.114ZM837.726 113.362L834.72 113.678L832.942 96.779L835.832 96.4749L836.048 98.526C836.366 97.817 836.882 97.201 837.597 96.678C838.311 96.1472 839.162 95.8299 840.148 95.7261C841.298 95.6051 842.365 95.7796 843.349 96.2495C844.333 96.7116 845.127 97.3939 845.733 98.2965C846.338 99.1912 846.7 100.21 846.82 101.352C846.941 102.494 846.798 103.566 846.393 104.567C845.987 105.568 845.352 106.396 844.486 107.053C843.62 107.71 842.613 108.099 841.463 108.22C840.453 108.326 839.548 108.201 838.749 107.845C837.956 107.481 837.368 106.973 836.986 106.322L837.726 113.362ZM843.08 104.444C843.68 103.65 843.925 102.725 843.814 101.668C843.702 100.612 843.27 99.7536 842.518 99.0943C841.773 98.4343 840.872 98.1599 839.815 98.271C838.797 98.3781 837.972 98.8185 837.338 99.5922C836.712 100.365 836.458 101.311 836.576 102.43C836.694 103.548 837.139 104.417 837.911 105.035C838.691 105.652 839.589 105.907 840.607 105.8C841.664 105.689 842.488 105.237 843.08 104.444ZM851.704 101.851C851.896 102.774 852.315 103.472 852.962 103.946C853.608 104.42 854.449 104.603 855.482 104.494C856.197 104.419 856.812 104.217 857.327 103.887C857.841 103.55 858.221 103.126 858.466 102.613L861.263 102.319C860.943 103.46 860.284 104.444 859.287 105.272C858.297 106.091 857.107 106.574 855.716 106.72C853.727 106.929 852.096 106.508 850.823 105.456C849.557 104.403 848.828 102.963 848.636 101.137C848.446 99.3347 848.876 97.7851 849.926 96.4884C850.975 95.184 852.416 94.4353 854.25 94.2424C856.099 94.0478 857.664 94.4762 858.946 95.5276C860.234 96.5782 860.976 98.0242 861.169 99.8656L861.272 100.845L851.704 101.851ZM854.535 96.3923C853.595 96.4912 852.855 96.8519 852.316 97.4742C851.783 98.088 851.502 98.8874 851.472 99.8725L858.197 99.165C858.005 98.2347 857.584 97.517 856.934 97.0119C856.283 96.4991 855.483 96.2926 854.535 96.3923ZM868.876 92.7035C870.446 92.5383 871.828 92.8328 873.023 93.5869C874.225 94.3324 875.061 95.3364 875.531 96.5988L872.63 96.9041C871.881 95.616 870.711 95.0557 869.118 95.2233C868.022 95.3385 867.198 95.7906 866.645 96.5793C866.091 97.3681 865.87 98.287 865.98 99.3359C866.091 100.385 866.499 101.237 867.204 101.894C867.908 102.542 868.808 102.809 869.904 102.694C871.505 102.525 872.532 101.73 872.988 100.307L875.89 100.002C875.692 101.335 875.083 102.494 874.064 103.482C873.051 104.46 871.76 105.032 870.191 105.197C868.909 105.332 867.738 105.176 866.677 104.73C865.617 104.284 864.769 103.619 864.134 102.735C863.499 101.844 863.119 100.815 862.997 99.6498C862.809 97.8628 863.258 96.3111 864.345 94.9949C865.431 93.6708 866.942 92.907 868.876 92.7035ZM878.959 103.98L877.706 92.069L880.713 91.7526L881.966 103.663L878.959 103.98ZM877.017 88.3236C876.966 87.8341 877.093 87.4005 877.399 87.0227C877.705 86.6448 878.114 86.4289 878.627 86.375C879.132 86.3218 879.574 86.4482 879.951 86.7541C880.328 87.0522 880.543 87.4499 880.595 87.9472C880.649 88.46 880.523 88.9014 880.216 89.2715C879.917 89.6407 879.511 89.8523 878.999 89.9063C878.486 89.9602 878.041 89.8381 877.664 89.54C877.287 89.2419 877.071 88.8364 877.017 88.3236ZM896.61 90.0801L897.863 101.991L894.984 102.294L894.768 100.243C894.458 100.951 893.942 101.571 893.22 102.102C892.497 102.626 891.647 102.939 890.668 103.042C889.518 103.163 888.451 102.993 887.468 102.531C886.484 102.069 885.69 101.39 885.085 100.495C884.481 99.6007 884.118 98.5822 883.998 97.4401C883.878 96.298 884.02 95.2264 884.426 94.2254C884.83 93.2166 885.465 92.3838 886.331 91.7271C887.196 91.0627 888.203 90.6699 889.353 90.549C890.363 90.4427 891.277 90.5744 892.093 90.9441C892.917 91.3052 893.519 91.8035 893.9 92.439L893.684 90.3878L896.61 90.0801ZM887.725 94.3378C887.134 95.1384 886.894 96.0671 887.005 97.1237C887.116 98.1804 887.54 99.0353 888.276 99.6884C889.021 100.341 889.921 100.611 890.978 100.5C892.011 100.391 892.841 99.9544 893.467 99.1893C894.094 98.4243 894.348 97.4823 894.231 96.3635C894.113 95.2447 893.664 94.3728 892.883 93.7479C892.11 93.1222 891.211 92.8634 890.185 92.9713C889.137 93.0816 888.316 93.5371 887.725 94.3378ZM901.161 101.644L899.328 84.2205L902.335 83.9041L904.168 101.327L901.161 101.644ZM907.559 100.971L906.306 89.0598L909.313 88.7435L910.566 100.654L907.559 100.971ZM905.617 85.3144C905.566 84.825 905.693 84.3913 905.999 84.0135C906.305 83.6356 906.714 83.4197 907.227 83.3658C907.732 83.3127 908.173 83.439 908.551 83.7449C908.928 84.0431 909.143 84.4407 909.195 84.938C909.249 85.4508 909.123 85.8922 908.816 86.2623C908.517 86.6315 908.111 86.8431 907.599 86.8971C907.086 86.951 906.641 86.829 906.264 86.5308C905.887 86.2327 905.671 85.8272 905.617 85.3144ZM915.308 96.5614C915.601 97.701 916.392 98.203 917.682 98.0673C918.265 98.006 918.721 97.8206 919.049 97.5111C919.386 97.2007 919.529 96.8085 919.479 96.3346C919.44 95.9617 919.309 95.6809 919.084 95.4924C918.86 95.2961 918.514 95.1517 918.049 95.0593L916.227 94.7679C915.125 94.5932 914.281 94.2656 913.697 93.7851C913.112 93.3046 912.771 92.602 912.674 91.6774C912.562 90.613 912.868 89.7167 913.593 88.9884C914.324 88.2515 915.3 87.819 916.52 87.6906C917.763 87.5598 918.776 87.7792 919.558 88.3489C920.349 88.9178 920.871 89.7387 921.125 90.8117L918.561 91.0815C918.479 90.6738 918.288 90.3444 917.986 90.0933C917.693 89.8414 917.301 89.7412 916.812 89.7927C916.345 89.8417 915.981 89.9979 915.718 90.2613C915.462 90.516 915.355 90.8415 915.396 91.2378C915.433 91.5874 915.558 91.8414 915.771 91.9996C915.991 92.1493 916.342 92.2734 916.824 92.372L919.007 92.7432C920.959 93.0721 922.024 94.0873 922.203 95.7888C922.283 96.5502 922.13 97.2577 921.743 97.9111C921.363 98.556 920.832 99.0753 920.151 99.469C919.477 99.8542 918.735 100.089 917.927 100.174C916.614 100.312 915.493 100.108 914.564 99.562C913.641 99.0071 913.039 98.0964 912.756 96.8299L915.308 96.5614ZM924.101 83.5935L927.108 83.2772L927.482 86.8318L930.559 86.508L930.82 88.9904L927.743 89.3141L928.314 94.7335C928.379 95.355 928.555 95.7961 928.842 96.0566C929.136 96.3162 929.571 96.4158 930.146 96.3553C930.503 96.3177 930.934 96.1977 931.439 95.9953L931.693 98.4078C931.508 98.5137 931.213 98.6194 930.807 98.7249C930.402 98.8304 930.009 98.9031 929.628 98.9432C928.269 99.0863 927.242 98.8094 926.548 98.1125C925.862 97.4149 925.443 96.3473 925.292 94.91L924.737 89.6305L922.522 89.8635L922.261 87.3811L924.475 87.1481L924.101 83.5935ZM935.471 94.44C935.763 95.5797 936.555 96.0817 937.844 95.9459C938.427 95.8846 938.883 95.6992 939.212 95.3897C939.548 95.0793 939.691 94.6872 939.642 94.2132C939.602 93.8403 939.471 93.5595 939.247 93.371C939.022 93.1747 938.677 93.0304 938.211 92.9379L936.389 92.6465C935.287 92.4718 934.443 92.1442 933.859 91.6637C933.274 91.1832 932.933 90.4806 932.836 89.5561C932.724 88.4916 933.03 87.5953 933.755 86.867C934.486 86.1302 935.462 85.6976 936.682 85.5692C937.925 85.4384 938.938 85.6579 939.72 86.2275C940.511 86.7964 941.033 87.6173 941.288 88.6903L938.724 88.9601C938.641 88.5524 938.45 88.223 938.148 87.9719C937.855 87.72 937.463 87.6198 936.974 87.6713C936.507 87.7204 936.143 87.8766 935.88 88.1399C935.624 88.3946 935.517 88.7201 935.559 89.1164C935.595 89.466 935.72 89.72 935.933 89.8782C936.153 90.0279 936.504 90.152 936.986 90.2506L939.169 90.6218C941.121 90.9507 942.186 91.9659 942.365 93.6674C942.445 94.4288 942.292 95.1363 941.905 95.7897C941.525 96.4346 940.994 96.9539 940.313 97.3477C939.639 97.7328 938.898 97.9679 938.09 98.0529C936.776 98.1911 935.655 97.987 934.726 97.4406C933.803 96.8857 933.201 95.975 932.918 94.7085L935.471 94.44Z" fill="#0033FF"/>
</svg>
