<svg width="360" height="375" viewBox="0 0 360 375" fill="none" xmlns="http://www.w3.org/2000/svg">
<rect x="162" y="344.764" width="195" height="30" rx="15" transform="rotate(-7 162 344.764)" fill="#9AC2E4"/>
<path d="M186.268 360.926L184.267 361.172L183.294 353.247L185.233 353.009L185.398 354.358C185.522 353.865 185.804 353.45 186.245 353.113C186.687 352.775 187.22 352.568 187.845 352.491C188.781 352.376 189.548 352.597 190.146 353.153C190.745 353.709 191.106 354.491 191.23 355.5L191.812 360.245L189.812 360.491L189.27 356.079C189.197 355.484 188.999 355.028 188.677 354.711C188.354 354.389 187.906 354.263 187.332 354.333C186.784 354.4 186.361 354.636 186.065 355.04C185.768 355.443 185.654 355.93 185.724 356.498L186.268 360.926ZM195.006 356.516C195.145 357.128 195.432 357.589 195.869 357.897C196.305 358.206 196.868 358.318 197.555 358.233C198.031 358.175 198.438 358.033 198.778 357.808C199.117 357.577 199.365 357.29 199.522 356.945L201.383 356.717C201.183 357.481 200.756 358.145 200.101 358.708C199.45 359.265 198.662 359.601 197.737 359.714C196.414 359.877 195.321 359.615 194.461 358.928C193.605 358.241 193.102 357.29 192.953 356.075C192.806 354.876 193.075 353.838 193.759 352.961C194.443 352.08 195.396 351.564 196.616 351.414C197.846 351.263 198.894 351.531 199.76 352.217C200.631 352.902 201.142 353.857 201.293 355.083L201.373 355.734L195.006 356.516ZM196.83 352.844C196.205 352.921 195.716 353.17 195.364 353.591C195.016 354.006 194.838 354.542 194.829 355.199L199.303 354.65C199.164 354.032 198.875 353.558 198.436 353.229C197.996 352.895 197.461 352.767 196.83 352.844ZM207.139 350.319L209.232 350.062L206.924 354.344L210.291 357.976L208.174 358.236L206.063 355.984L204.568 358.679L202.459 358.938L204.846 354.599L201.563 351.004L203.665 350.746L205.692 352.96L207.139 350.319ZM211.028 347.441L213.028 347.195L213.319 349.56L215.366 349.309L215.569 350.96L213.522 351.212L213.964 354.818C214.015 355.231 214.138 355.523 214.332 355.693C214.531 355.863 214.822 355.924 215.204 355.877C215.442 355.848 215.728 355.763 216.062 355.623L216.259 357.228C216.137 357.3 215.942 357.374 215.673 357.449C215.404 357.524 215.143 357.577 214.889 357.608C213.985 357.719 213.297 357.547 212.827 357.09C212.361 356.633 212.07 355.926 211.952 354.97L211.521 351.457L210.048 351.638L209.845 349.987L211.318 349.806L211.028 347.441ZM216.936 351.58L221.86 350.975L222.077 352.743L217.153 353.348L216.936 351.58ZM226.966 347.688C227.633 347.606 228.235 347.684 228.773 347.922C229.316 348.155 229.714 348.492 229.968 348.933L229.797 347.537L231.766 347.295L232.726 355.111C232.851 356.13 232.542 357.036 231.8 357.83C231.063 358.624 230.08 359.096 228.849 359.247C227.8 359.376 226.875 359.256 226.074 358.888C225.278 358.518 224.673 357.905 224.258 357.048L226.243 356.805C226.743 357.541 227.543 357.841 228.645 357.706C229.353 357.619 229.897 357.369 230.276 356.955C230.656 356.541 230.805 356.008 230.725 355.357L230.536 353.814C230.345 354.268 230.021 354.662 229.563 354.996C229.111 355.33 228.569 355.535 227.939 355.613C227.174 355.707 226.467 355.615 225.819 355.338C225.176 355.06 224.655 354.641 224.256 354.081C223.862 353.521 223.62 352.874 223.53 352.14C223.439 351.406 223.518 350.719 223.765 350.08C224.016 349.435 224.42 348.9 224.977 348.475C225.538 348.044 226.201 347.782 226.966 347.688ZM228.116 353.914C228.788 353.832 229.328 353.548 229.735 353.062C230.148 352.576 230.312 351.994 230.229 351.317C230.145 350.635 229.845 350.108 229.327 349.736C228.813 349.358 228.221 349.21 227.548 349.293C226.856 349.378 226.322 349.666 225.947 350.158C225.576 350.645 225.432 351.224 225.515 351.896C225.597 352.563 225.879 353.087 226.361 353.469C226.843 353.85 227.428 353.999 228.116 353.914ZM236.011 351.481C236.149 352.094 236.437 352.554 236.873 352.863C237.31 353.171 237.872 353.283 238.56 353.199C239.035 353.14 239.443 352.998 239.783 352.773C240.122 352.542 240.37 352.255 240.527 351.91L242.388 351.682C242.188 352.446 241.76 353.11 241.105 353.673C240.455 354.231 239.667 354.566 238.742 354.68C237.418 354.842 236.326 354.58 235.465 353.893C234.609 353.206 234.107 352.255 233.958 351.04C233.81 349.841 234.079 348.803 234.764 347.927C235.448 347.045 236.4 346.529 237.62 346.38C238.85 346.228 239.899 346.496 240.765 347.182C241.636 347.867 242.147 348.823 242.297 350.048L242.377 350.699L236.011 351.481ZM237.835 347.809C237.209 347.886 236.721 348.135 236.368 348.556C236.02 348.971 235.842 349.508 235.834 350.165L240.308 349.615C240.169 348.997 239.88 348.524 239.441 348.195C239.001 347.86 238.466 347.732 237.835 347.809ZM246.488 353.532L244.487 353.778L243.514 345.853L245.452 345.615L245.618 346.964C245.741 346.471 246.024 346.056 246.465 345.719C246.906 345.381 247.44 345.174 248.065 345.097C249.001 344.982 249.768 345.203 250.366 345.759C250.964 346.315 251.325 347.097 251.449 348.106L252.032 352.851L250.031 353.097L249.489 348.685C249.416 348.09 249.219 347.634 248.897 347.317C248.574 346.995 248.125 346.869 247.551 346.939C247.003 347.006 246.581 347.242 246.284 347.646C245.988 348.049 245.874 348.536 245.944 349.104L246.488 353.532ZM258.821 349.617C259.029 350.373 259.563 350.699 260.421 350.593C260.808 350.546 261.11 350.417 261.326 350.207C261.546 349.996 261.637 349.733 261.599 349.417C261.568 349.169 261.477 348.984 261.326 348.861C261.174 348.732 260.942 348.64 260.631 348.584L259.413 348.411C258.676 348.307 258.11 348.098 257.715 347.785C257.319 347.471 257.084 347.007 257.008 346.392C256.921 345.684 257.115 345.083 257.59 344.589C258.069 344.089 258.714 343.789 259.526 343.69C260.353 343.588 261.031 343.723 261.559 344.094C262.092 344.464 262.45 345.005 262.632 345.717L260.926 345.927C260.867 345.656 260.735 345.438 260.531 345.274C260.333 345.11 260.07 345.048 259.745 345.088C259.435 345.126 259.193 345.234 259.021 345.413C258.853 345.585 258.786 345.804 258.818 346.067C258.847 346.3 258.933 346.468 259.077 346.571C259.225 346.668 259.46 346.747 259.783 346.807L261.243 347.029C262.547 347.226 263.269 347.89 263.408 349.022C263.47 349.529 263.376 350.002 263.126 350.442C262.88 350.876 262.532 351.229 262.083 351.499C261.638 351.764 261.146 351.929 260.609 351.995C259.735 352.102 258.985 351.979 258.359 351.626C257.738 351.266 257.326 350.666 257.123 349.825L258.821 349.617ZM267.707 354.295L265.707 354.541L264.326 343.297L266.249 343.061L266.417 344.426C266.621 343.95 266.958 343.533 267.428 343.176C267.898 342.814 268.461 342.593 269.118 342.512C269.883 342.418 270.596 342.522 271.258 342.824C271.919 343.121 272.456 343.566 272.87 344.161C273.284 344.75 273.537 345.425 273.63 346.185C273.724 346.945 273.641 347.661 273.382 348.333C273.124 349.005 272.71 349.564 272.14 350.012C271.571 350.46 270.904 350.731 270.139 350.825C269.467 350.907 268.862 350.834 268.325 350.607C267.793 350.373 267.395 350.041 267.132 349.612L267.707 354.295ZM271.173 348.289C271.564 347.753 271.716 347.134 271.63 346.43C271.543 345.727 271.246 345.161 270.736 344.73C270.232 344.298 269.628 344.126 268.925 344.212C268.248 344.295 267.703 344.599 267.29 345.122C266.881 345.644 266.723 346.277 266.814 347.022C266.906 347.766 267.212 348.34 267.734 348.743C268.261 349.145 268.863 349.305 269.54 349.222C270.243 349.135 270.788 348.824 271.173 348.289ZM276.892 346.461C277.03 347.074 277.317 347.535 277.754 347.843C278.191 348.152 278.753 348.264 279.44 348.179C279.916 348.121 280.323 347.979 280.663 347.754C281.002 347.523 281.25 347.235 281.407 346.891L283.268 346.662C283.068 347.427 282.641 348.091 281.986 348.654C281.335 349.211 280.547 349.547 279.622 349.66C278.299 349.823 277.206 349.561 276.346 348.874C275.49 348.187 274.987 347.236 274.838 346.021C274.691 344.821 274.96 343.784 275.644 342.907C276.329 342.026 277.281 341.51 278.501 341.36C279.731 341.209 280.779 341.476 281.645 342.162C282.517 342.848 283.027 343.803 283.178 345.028L283.258 345.68L276.892 346.461ZM278.716 342.79C278.09 342.867 277.601 343.116 277.249 343.537C276.901 343.952 276.723 344.488 276.714 345.145L281.188 344.596C281.05 343.978 280.761 343.504 280.321 343.175C279.881 342.841 279.346 342.712 278.716 342.79ZM288.232 340.165C289.276 340.037 290.201 340.217 291.006 340.706C291.816 341.189 292.385 341.849 292.713 342.685L290.782 342.922C290.269 342.072 289.482 341.712 288.422 341.842C287.693 341.931 287.149 342.242 286.789 342.774C286.43 343.307 286.293 343.922 286.378 344.62C286.464 345.317 286.746 345.881 287.224 346.31C287.701 346.735 288.304 346.902 289.033 346.812C290.098 346.682 290.774 346.14 291.06 345.186L292.991 344.949C292.875 345.84 292.483 346.62 291.815 347.289C291.151 347.953 290.297 348.35 289.253 348.478C288.4 348.582 287.617 348.492 286.905 348.207C286.194 347.922 285.621 347.489 285.187 346.907C284.753 346.32 284.489 345.639 284.393 344.863C284.247 343.674 284.529 342.635 285.238 341.745C285.947 340.85 286.945 340.323 288.232 340.165ZM295.084 347.565L294.11 339.64L296.111 339.395L297.084 347.319L295.084 347.565ZM293.608 337.152C293.568 336.826 293.648 336.535 293.847 336.28C294.047 336.025 294.317 335.876 294.659 335.834C294.995 335.793 295.29 335.872 295.546 336.071C295.8 336.266 295.948 336.528 295.989 336.859C296.031 337.2 295.951 337.496 295.751 337.746C295.556 337.996 295.288 338.142 294.947 338.184C294.606 338.226 294.308 338.149 294.053 337.955C293.798 337.761 293.65 337.493 293.608 337.152ZM306.688 338.096L307.661 346.021L305.746 346.256L305.578 344.891C305.379 345.367 305.043 345.786 304.568 346.149C304.092 346.506 303.528 346.725 302.877 346.805C302.112 346.899 301.399 346.797 300.738 346.501C300.077 346.204 299.54 345.761 299.127 345.172C298.713 344.582 298.46 343.908 298.367 343.148C298.273 342.388 298.356 341.672 298.614 341C298.872 340.323 299.286 339.76 299.856 339.313C300.424 338.86 301.091 338.586 301.856 338.492C302.528 338.41 303.139 338.487 303.687 338.724C304.241 338.955 304.648 339.28 304.909 339.7L304.742 338.335L306.688 338.096ZM300.815 341.037C300.43 341.577 300.281 342.199 300.367 342.902C300.453 343.605 300.746 344.17 301.244 344.597C301.748 345.023 302.351 345.193 303.054 345.107C303.742 345.022 304.29 344.721 304.699 344.204C305.107 343.687 305.266 343.056 305.175 342.312C305.083 341.567 304.774 340.991 304.246 340.584C303.724 340.176 303.122 340.014 302.439 340.097C301.741 340.183 301.2 340.496 300.815 341.037ZM309.855 345.751L308.432 334.159L310.433 333.913L311.856 345.506L309.855 345.751ZM314.112 345.229L313.139 337.304L315.14 337.058L316.113 344.983L314.112 345.229ZM312.637 334.815C312.597 334.489 312.677 334.199 312.876 333.944C313.076 333.688 313.346 333.54 313.687 333.498C314.024 333.456 314.319 333.535 314.575 333.735C314.829 333.929 314.977 334.192 315.018 334.523C315.06 334.864 314.98 335.16 314.78 335.41C314.585 335.66 314.317 335.805 313.976 335.847C313.635 335.889 313.337 335.813 313.082 335.618C312.827 335.424 312.679 335.156 312.637 334.815ZM319.227 342.2C319.435 342.956 319.968 343.282 320.826 343.176C321.214 343.129 321.516 343 321.731 342.79C321.952 342.579 322.043 342.316 322.004 342.001C321.974 341.752 321.883 341.567 321.731 341.444C321.579 341.315 321.348 341.223 321.036 341.167L319.819 340.994C319.082 340.89 318.516 340.682 318.12 340.368C317.725 340.054 317.49 339.59 317.414 338.975C317.327 338.267 317.521 337.666 317.996 337.172C318.475 336.672 319.12 336.373 319.932 336.273C320.759 336.171 321.436 336.306 321.965 336.677C322.498 337.047 322.856 337.588 323.038 338.3L321.332 338.51C321.272 338.239 321.141 338.021 320.937 337.858C320.738 337.693 320.476 337.631 320.15 337.671C319.84 337.709 319.599 337.817 319.427 337.996C319.259 338.169 319.192 338.387 319.224 338.65C319.252 338.883 319.339 339.051 319.483 339.154C319.631 339.251 319.866 339.33 320.188 339.39L321.648 339.612C322.953 339.809 323.675 340.473 323.814 341.605C323.876 342.112 323.782 342.585 323.531 343.025C323.286 343.459 322.938 343.812 322.488 344.082C322.043 344.347 321.552 344.512 321.014 344.578C320.141 344.685 319.391 344.562 318.765 344.209C318.144 343.849 317.732 343.249 317.529 342.408L319.227 342.2ZM324.938 333.454L326.939 333.209L327.229 335.574L329.276 335.322L329.479 336.974L327.432 337.225L327.874 340.831C327.925 341.245 328.048 341.537 328.242 341.707C328.441 341.877 328.732 341.938 329.114 341.891C329.352 341.862 329.638 341.777 329.973 341.636L330.17 343.241C330.047 343.314 329.852 343.388 329.583 343.463C329.314 343.538 329.053 343.591 328.8 343.622C327.895 343.733 327.207 343.56 326.737 343.104C326.271 342.647 325.98 341.94 325.862 340.984L325.431 337.471L323.958 337.652L323.755 336L325.228 335.819L324.938 333.454ZM332.642 340.553C332.85 341.309 333.383 341.635 334.241 341.529C334.629 341.482 334.931 341.353 335.146 341.143C335.367 340.932 335.458 340.669 335.419 340.353C335.389 340.105 335.298 339.92 335.146 339.797C334.994 339.668 334.762 339.576 334.451 339.52L333.234 339.347C332.497 339.243 331.931 339.034 331.535 338.721C331.14 338.407 330.904 337.943 330.829 337.328C330.742 336.62 330.936 336.019 331.41 335.525C331.89 335.025 332.535 334.725 333.347 334.626C334.174 334.524 334.851 334.659 335.38 335.029C335.913 335.4 336.271 335.941 336.453 336.653L334.747 336.862C334.687 336.592 334.556 336.374 334.352 336.21C334.153 336.046 333.891 335.984 333.565 336.024C333.255 336.062 333.014 336.17 332.842 336.349C332.674 336.521 332.606 336.74 332.639 337.003C332.667 337.236 332.754 337.404 332.897 337.507C333.046 337.604 333.281 337.683 333.603 337.743L335.063 337.965C336.368 338.162 337.089 338.826 337.228 339.958C337.291 340.465 337.197 340.938 336.946 341.378C336.7 341.812 336.353 342.165 335.903 342.435C335.458 342.699 334.967 342.865 334.429 342.931C333.556 343.038 332.806 342.915 332.18 342.562C331.559 342.202 331.146 341.602 330.944 340.761L332.642 340.553Z" fill="#0033FF"/>
<line x1="174.5" y1="2.18557e-08" x2="174.5" y2="363" stroke="#9AC2E4"/>
<line y1="101.5" x2="358" y2="101.5" stroke="#9AC2E4"/>
<path d="M166.156 54.4375H168.227L170.367 60.1172L172.516 54.4375H174.578L171.266 62.4219H169.469L166.156 54.4375ZM176.914 60.0391C177.029 60.8151 177.518 61.2031 178.383 61.2031C178.773 61.2031 179.089 61.112 179.328 60.9297C179.573 60.7474 179.695 60.4974 179.695 60.1797C179.695 59.9297 179.628 59.7344 179.492 59.5938C179.357 59.4479 179.138 59.3281 178.836 59.2344L177.648 58.9141C176.93 58.7214 176.393 58.4453 176.039 58.0859C175.685 57.7266 175.508 57.237 175.508 56.6172C175.508 55.9036 175.773 55.3307 176.305 54.8984C176.841 54.4609 177.518 54.2422 178.336 54.2422C179.169 54.2422 179.826 54.4583 180.305 54.8906C180.789 55.3229 181.078 55.9036 181.172 56.6328H179.453C179.427 56.3568 179.323 56.125 179.141 55.9375C178.964 55.75 178.711 55.6562 178.383 55.6562C178.07 55.6562 177.818 55.7344 177.625 55.8906C177.438 56.0417 177.344 56.25 177.344 56.5156C177.344 56.75 177.409 56.9271 177.539 57.0469C177.674 57.1615 177.898 57.2682 178.211 57.3672L179.633 57.7656C180.904 58.1198 181.539 58.8672 181.539 60.0078C181.539 60.5182 181.388 60.9766 181.086 61.3828C180.789 61.7839 180.401 62.0911 179.922 62.3047C179.448 62.513 178.94 62.6172 178.398 62.6172C177.518 62.6172 176.789 62.4036 176.211 61.9766C175.638 61.5443 175.302 60.8984 175.203 60.0391H176.914Z" fill="#0033FF"/>
</svg>
