<svg viewBox="0 0 60 60" fill="none" xmlns="http://www.w3.org/2000/svg">
<title>WhatsApp</title>
<path class="svg-icon" fill="#0033FF" d="M44.5525 40.3027C43.95 42.0082 41.555 43.4192 39.645 43.8318C38.3375 44.1094 36.6325 44.329 30.8875 41.9482C24.435 39.2749 15.475 29.7524 15.475 23.4155C15.475 20.1896 17.335 16.4331 20.5875 16.4331C22.1525 16.4331 22.4975 16.4636 23.0125 17.699C23.615 19.1544 25.085 22.7403 25.26 23.1079C25.9825 24.6159 24.525 25.4986 23.4675 26.8115C23.13 27.2066 22.7475 27.6339 23.175 28.3691C23.6 29.0894 25.07 31.4851 27.23 33.4082C30.02 35.894 32.2825 36.6875 33.0925 37.0251C33.695 37.2752 34.415 37.217 34.855 36.7468C35.4125 36.1442 36.105 35.1442 36.81 34.1589C37.3075 33.4537 37.94 33.3656 38.6025 33.6157C39.05 33.7708 44.7375 36.4121 44.9775 36.8347C45.155 37.1423 45.155 38.5972 44.5525 40.3027ZM30.005 5H29.9925C16.21 5 5 16.2134 5 30C5 35.4667 6.76252 40.5383 9.76002 44.6521L6.64501 53.9417L16.2525 50.8716C20.205 53.4874 24.9225 55 30.005 55C43.7875 55 55 43.7866 55 30C55 16.2134 43.7875 5 30.005 5Z"/>
</svg>
