<svg viewBox="0 0 60 60" fill="none" xmlns="http://www.w3.org/2000/svg">
<title>Telegram</title>
<path class="svg-icon" fill="#0033FF" d="M30 5C16.25 5 5 16.25 5 30C5 43.75 16.25 55 30 55C43.75 55 55 43.75 55 30C55 16.25 43.75 5 30 5ZM42.25 20.25L38 40.75C37.75 42.25 36.75 42.5 35.75 41.75L29.25 36.75C27.75 38.25 26.25 39.5 26 40C25.5 40.25 25.25 40.75 24.75 40.75C24 40.75 24 40.25 23.75 39.75L21.5 32.25L14.75 30C13.25 29.5 13.25 28.5 15 27.75L40.5 18C41.5 17.75 42.75 18.25 42.25 20.25ZM36.25 22.5L22 31.5L24.25 39L24.75 34L37 23C37.75 22.25 37.25 22.25 36.25 22.5Z"/>
</svg>
