<svg viewBox="0 0 60 60" fill="none" xmlns="http://www.w3.org/2000/svg">
<path fill="#0033FF" fill-rule="evenodd" clip-rule="evenodd" d="M55 30C55 43.807 43.807 55 30 55C16.1929 55 5 43.807 5 30C5 16.1929 16.1929 5 30 5C43.807 5 55 16.1929 55 30ZM18.8 19C17.26 19 16.014 20.2375 16.014 21.75L16 38.25C16 39.7625 17.26 41 18.8 41H41.2C42.74 41 44 39.7625 44 38.25V21.75C44 20.2375 42.74 19 41.2 19H18.8ZM18.8 24.4999L30 31.375L41.2 24.4999V38.25H18.8V24.4999ZM18.8 21.75L30 28.625L41.2 21.75H18.8Z" />
</svg>
