<svg viewBox="0 0 60 60" fill="none" xmlns="http://www.w3.org/2000/svg">
<path fill="#0033FF" fill-rule="evenodd" clip-rule="evenodd" d="M30 5C43.807 5 55 16.1929 55 30C55 43.807 43.807 55 30 55C16.1929 55 5 43.807 5 30C5 16.1929 16.1929 5 30 5ZM19.1262 17.0003L23.3647 17.0003L23.177 17C24.0381 17 24.2558 17.0142 24.6526 17.1604C25.0405 17.3033 25.3877 17.5366 25.6638 17.8415C25.8142 18.0076 25.9314 18.1884 26.0367 18.4023C26.1258 18.5832 26.1805 18.7199 26.3423 19.1468L27.938 23.3577C28.2874 24.2799 28.3558 24.5131 28.3228 25C28.2911 25.4678 28.1252 25.9167 27.8453 26.2958C27.7387 26.4401 27.6162 26.5676 27.4746 26.6864C27.2493 26.8753 27.0811 26.9793 26.4909 27.3191L25.5987 27.8321L25.6078 27.8488C27.0083 30.2992 29.1297 32.3349 31.6873 33.679L31.7907 33.7317L32.3559 32.8298C32.8386 32.0576 32.9993 31.8309 33.3417 31.5836L33.4242 31.5259C33.8071 31.2655 34.2552 31.1129 34.7196 31.0839C35.1991 31.054 35.4366 31.1182 36.3772 31.4462L40.7654 32.9775C41.5787 33.2613 41.7787 33.3461 42.1041 33.6175C42.4236 33.8838 42.6716 34.2237 42.8243 34.6062C42.9847 35.0065 43 35.2228 43 36.0675V39.7671C43 40.7726 42.9763 41.0397 42.7384 41.513C42.5182 41.9511 42.1357 42.3461 41.7035 42.5848C41.297 42.8092 40.9617 42.8742 40.2887 42.9248C40.1736 42.9333 40.1724 42.9334 40.053 42.9418L40.0493 42.942C39.5008 42.9806 38.949 43 38.3947 43C26.0367 43 16 33.3689 16 21.4646C16 20.9296 16.0203 20.3969 16.0607 19.8671C16.0653 19.8067 16.0676 19.7773 16.0699 19.7478C16.0721 19.7199 16.0743 19.692 16.0786 19.6375C16.1327 18.975 16.2035 18.6383 16.4469 18.2326C16.6988 17.8128 17.1088 17.4471 17.5565 17.2399C17.9964 17.0364 18.2587 17.0038 19.1262 17.0003ZM23.8324 19.3778C23.8181 19.3725 23.7366 19.3664 23.4226 19.3643H19.0704C18.7409 19.3665 18.6161 19.3728 18.5718 19.3796L18.5528 19.3842C18.5336 19.3931 18.4854 19.436 18.4789 19.447C18.4789 19.447 18.4652 19.5118 18.4392 19.8294L18.4392 19.8302C18.4312 19.9305 18.4311 19.9308 18.4223 20.0465C18.3864 20.5167 18.3684 20.9895 18.3684 21.4646C18.3684 32.0423 27.3244 40.6364 38.3947 40.6364C38.8935 40.6364 39.3897 40.6189 39.8828 40.5843C40.0042 40.5757 40.0042 40.5757 40.1105 40.5679C40.4576 40.5418 40.5403 40.5258 40.5568 40.5167C40.5733 40.5075 40.6165 40.4629 40.6214 40.4532C40.6214 40.4532 40.6316 40.3377 40.6316 39.7671V36.0675C40.6316 35.5867 40.6246 35.4824 40.6246 35.4824C40.6177 35.4651 40.6048 35.4475 40.5856 35.4314L40.569 35.4228C40.5244 35.4028 40.38 35.3469 39.9837 35.2087L35.5957 33.6775C35.0237 33.478 34.889 33.4416 34.8674 33.4429C34.8264 33.4455 34.7881 33.4585 34.7577 33.4792C34.7497 33.4846 34.6722 33.59 34.3653 34.081L33.2415 35.8782C32.9308 36.3752 32.3022 36.57 31.764 36.3361C27.879 34.6476 24.7245 31.6195 22.9553 27.8781C22.6923 27.3219 22.9007 26.6574 23.4345 26.35L25.3074 25.2717C25.7033 25.0438 25.8499 24.9548 25.9275 24.8955L25.9445 24.8813L25.9537 24.8667L25.9597 24.8406L25.9506 24.8163L25.9486 24.8105C25.927 24.7479 25.8679 24.5771 25.7227 24.1938L24.1271 19.9831C23.997 19.64 23.9529 19.5296 23.9111 19.4447L23.9108 19.4442C23.9061 19.4346 23.9029 19.4282 23.9011 19.4242L23.8741 19.3986L23.8324 19.3778Z" />
</svg>
