<svg width="1184" height="267" viewBox="0 0 1184 267" fill="none" xmlns="http://www.w3.org/2000/svg">
<rect x="904" y="38.1145" width="277.527" height="36" rx="18" transform="rotate(-6.00635 904 38.1145)" fill="#0033FF"/>
<path d="M1152.42 32.6447C1152.71 33.7843 1153.51 34.2863 1154.8 34.1506C1155.38 34.0893 1155.83 33.9039 1156.16 33.5944C1156.5 33.284 1156.64 32.8918 1156.59 32.4179C1156.55 32.045 1156.42 31.7642 1156.2 31.5757C1155.97 31.3794 1155.63 31.235 1155.16 31.1426L1153.34 30.8512C1152.24 30.6765 1151.39 30.3489 1150.81 29.8684C1150.23 29.3879 1149.88 28.6853 1149.79 27.7607C1149.68 26.6963 1149.98 25.8 1150.71 25.0717C1151.44 24.3348 1152.41 23.9023 1153.63 23.7739C1154.88 23.6431 1155.89 23.8625 1156.67 24.4322C1157.46 25.0011 1157.98 25.822 1158.24 26.895L1155.67 27.1648C1155.59 26.7571 1155.4 26.4277 1155.1 26.1766C1154.81 25.9247 1154.41 25.8245 1153.93 25.876C1153.46 25.925 1153.09 26.0812 1152.83 26.3446C1152.58 26.5993 1152.47 26.9248 1152.51 27.3211C1152.55 27.6707 1152.67 27.9247 1152.88 28.0829C1153.1 28.2326 1153.46 28.3567 1153.94 28.4553L1156.12 28.8265C1158.07 29.1554 1159.14 30.1706 1159.32 31.8721C1159.4 32.6335 1159.24 33.341 1158.86 33.9944C1158.48 34.6393 1157.95 35.1586 1157.26 35.5523C1156.59 35.9375 1155.85 36.1726 1155.04 36.2576C1153.73 36.3958 1152.61 36.1917 1151.68 35.6453C1150.75 35.0904 1150.15 34.1797 1149.87 32.9132L1152.42 32.6447Z" fill="white"/>
<path d="M1141.05 21.7983L1144.06 21.4819L1144.43 25.0365L1147.51 24.7128L1147.77 27.1952L1144.69 27.5189L1145.26 32.9382C1145.33 33.5598 1145.51 34.0008 1145.79 34.2613C1146.09 34.521 1146.52 34.6206 1147.1 34.5601C1147.45 34.5225 1147.89 34.4025 1148.39 34.2001L1148.64 36.6125C1148.46 36.7184 1148.16 36.8241 1147.76 36.9296C1147.35 37.0351 1146.96 37.1079 1146.58 37.1479C1145.22 37.291 1144.19 37.0141 1143.5 36.3173C1142.81 35.6196 1142.39 34.5521 1142.24 33.1147L1141.69 27.8353L1139.47 28.0682L1139.21 25.5858L1141.43 25.3529L1141.05 21.7983Z" fill="white"/>
<path d="M1132.26 34.7661C1132.55 35.9058 1133.34 36.4078 1134.63 36.2721C1135.22 36.2108 1135.67 36.0254 1136 35.7158C1136.34 35.4055 1136.48 35.0133 1136.43 34.5394C1136.39 34.1664 1136.26 33.8857 1136.04 33.6972C1135.81 33.5009 1135.47 33.3565 1135 33.2641L1133.18 32.9726C1132.08 32.798 1131.23 32.4704 1130.65 31.9899C1130.06 31.5093 1129.72 30.8068 1129.62 29.8822C1129.51 28.8178 1129.82 27.9214 1130.54 27.1932C1131.28 26.4563 1132.25 26.0237 1133.47 25.8954C1134.71 25.7646 1135.73 25.984 1136.51 26.5537C1137.3 27.1225 1137.82 27.9435 1138.08 29.0165L1135.51 29.2863C1135.43 28.8786 1135.24 28.5492 1134.94 28.2981C1134.64 28.0462 1134.25 27.946 1133.76 27.9975C1133.3 28.0465 1132.93 28.2027 1132.67 28.466C1132.41 28.7208 1132.31 29.0463 1132.35 29.4425C1132.38 29.7922 1132.51 30.0461 1132.72 30.2044C1132.94 30.3541 1133.29 30.4782 1133.78 30.5768L1135.96 30.948C1137.91 31.2768 1138.98 32.292 1139.15 33.9936C1139.23 34.755 1139.08 35.4624 1138.69 36.1159C1138.31 36.7607 1137.78 37.28 1137.1 37.6738C1136.43 38.059 1135.69 38.2941 1134.88 38.3791C1133.57 38.5172 1132.44 38.3131 1131.51 37.7668C1130.59 37.2118 1129.99 36.3011 1129.71 35.0347L1132.26 34.7661Z" fill="white"/>
<path d="M1124.51 39.1754L1123.26 27.2646L1126.26 26.9482L1127.52 38.859L1124.51 39.1754ZM1122.57 23.5192C1122.52 23.0297 1122.64 22.5961 1122.95 22.2182C1123.26 21.8404 1123.67 21.6245 1124.18 21.5706C1124.68 21.5174 1125.12 21.6438 1125.5 21.9497C1125.88 22.2478 1126.09 22.6455 1126.15 23.1428C1126.2 23.6556 1126.07 24.097 1125.77 24.467C1125.47 24.8363 1125.06 25.0479 1124.55 25.1018C1124.04 25.1558 1123.59 25.0337 1123.22 24.7356C1122.84 24.4375 1122.62 24.032 1122.57 23.5192Z" fill="white"/>
<path d="M1118.11 39.8485L1116.28 22.4252L1119.29 22.1088L1121.12 39.5322L1118.11 39.8485Z" fill="white"/>
<path d="M1113.56 28.2847L1114.81 40.1955L1111.94 40.4984L1111.72 38.4472C1111.41 39.1555 1110.89 39.7754 1110.17 40.3069C1109.45 40.8307 1108.6 41.1441 1107.62 41.2472C1106.47 41.3681 1105.4 41.1976 1104.42 40.7354C1103.44 40.2733 1102.64 39.5949 1102.04 38.7001C1101.43 37.8054 1101.07 36.7869 1100.95 35.6448C1100.83 34.5026 1100.97 33.4311 1101.38 32.43C1101.78 31.4212 1102.42 30.5885 1103.28 29.9318C1104.15 29.2673 1105.15 28.8746 1106.3 28.7536C1107.31 28.6473 1108.23 28.7791 1109.04 29.1488C1109.87 29.5099 1110.47 30.0082 1110.85 30.6437L1110.64 28.5925L1113.56 28.2847ZM1104.68 32.5424C1104.09 33.3431 1103.84 34.2717 1103.96 35.3284C1104.07 36.3851 1104.49 37.24 1105.23 37.893C1105.97 38.5453 1106.87 38.8159 1107.93 38.7047C1108.96 38.5959 1109.79 38.1591 1110.42 37.394C1111.05 36.6289 1111.3 35.687 1111.18 34.5681C1111.06 33.4493 1110.61 32.5775 1109.83 31.9526C1109.06 31.3269 1108.16 31.068 1107.14 31.1759C1106.09 31.2863 1105.27 31.7418 1104.68 32.5424Z" fill="white"/>
<path d="M1095.91 42.1846L1094.66 30.2737L1097.66 29.9574L1098.92 41.8682L1095.91 42.1846ZM1093.97 26.5284C1093.92 26.0389 1094.04 25.6052 1094.35 25.2274C1094.66 24.8496 1095.07 24.6337 1095.58 24.5797C1096.08 24.5266 1096.52 24.653 1096.9 24.9588C1097.28 25.257 1097.49 25.6547 1097.55 26.1519C1097.6 26.6647 1097.47 27.1061 1097.17 27.4762C1096.87 27.8454 1096.46 28.057 1095.95 28.111C1095.44 28.165 1094.99 28.0429 1094.62 27.7447C1094.24 27.4466 1094.02 27.0412 1093.97 26.5284Z" fill="white"/>
<path d="M1085.83 30.9082C1087.4 30.743 1088.78 31.0375 1089.97 31.7916C1091.18 32.5371 1092.01 33.5411 1092.48 34.8035L1089.58 35.1088C1088.83 33.8207 1087.66 33.2604 1086.07 33.428C1084.97 33.5432 1084.15 33.9953 1083.6 34.784C1083.04 35.5728 1082.82 36.4917 1082.93 37.5406C1083.04 38.5895 1083.45 39.4421 1084.16 40.0985C1084.86 40.747 1085.76 41.0137 1086.86 40.8984C1088.46 40.73 1089.48 39.9345 1089.94 38.5119L1092.84 38.2066C1092.64 39.5392 1092.03 40.6991 1091.02 41.6862C1090 42.6647 1088.71 43.2366 1087.14 43.4017C1085.86 43.5366 1084.69 43.3809 1083.63 42.9347C1082.57 42.4886 1081.72 41.8236 1081.09 40.9399C1080.45 40.0484 1080.07 39.0199 1079.95 37.8545C1079.76 36.0675 1080.21 34.5158 1081.3 33.1996C1082.38 31.8755 1083.89 31.1117 1085.83 30.9082Z" fill="white"/>
<path d="M1068.66 40.056C1068.85 40.9786 1069.27 41.6769 1069.91 42.1508C1070.56 42.6248 1071.4 42.8074 1072.43 42.6987C1073.15 42.6235 1073.76 42.4213 1074.28 42.0921C1074.79 41.7552 1075.17 41.3304 1075.42 40.8176L1078.21 40.5233C1077.89 41.6646 1077.24 42.649 1076.24 43.4766C1075.25 44.2957 1074.06 44.7784 1072.67 44.9247C1070.68 45.134 1069.05 44.7125 1067.77 43.6603C1066.51 42.6072 1065.78 41.1678 1065.59 39.3419C1065.4 37.5394 1065.83 35.9898 1066.88 34.6931C1067.93 33.3887 1069.37 32.64 1071.2 32.4471C1073.05 32.2525 1074.62 32.681 1075.9 33.7324C1077.19 34.7829 1077.93 36.2289 1078.12 38.0703L1078.22 39.0493L1068.66 40.056ZM1071.49 34.597C1070.55 34.6959 1069.81 35.0566 1069.27 35.6789C1068.73 36.2927 1068.45 37.0922 1068.42 38.0773L1075.15 37.3697C1074.96 36.4394 1074.54 35.7217 1073.88 35.2167C1073.23 34.7038 1072.43 34.4973 1071.49 34.597Z" fill="white"/>
<path d="M1054.68 51.5663L1051.67 51.8826L1049.89 34.9837L1052.78 34.6796L1053 36.7308C1053.32 36.0218 1053.83 35.4057 1054.55 34.8828C1055.26 34.352 1056.11 34.0347 1057.1 33.9309C1058.25 33.8099 1059.32 33.9844 1060.3 34.4543C1061.28 34.9164 1062.08 35.5987 1062.68 36.5012C1063.29 37.396 1063.65 38.4144 1063.77 39.5566C1063.89 40.6987 1063.75 41.7703 1063.34 42.7713C1062.94 43.7723 1062.3 44.6012 1061.44 45.2579C1060.57 45.9146 1059.56 46.3034 1058.41 46.4244C1057.4 46.5307 1056.5 46.4059 1055.7 46.0501C1054.91 45.6857 1054.32 45.178 1053.94 44.527L1054.68 51.5663ZM1060.03 42.6485C1060.63 41.8548 1060.88 40.9296 1060.76 39.8729C1060.65 38.8163 1060.22 37.9583 1059.47 37.2991C1058.72 36.6391 1057.82 36.3646 1056.77 36.4758C1055.75 36.5829 1054.92 37.0233 1054.29 37.7969C1053.66 38.5698 1053.41 39.5156 1053.53 40.6344C1053.65 41.7533 1054.09 42.6216 1054.86 43.2396C1055.64 43.8567 1056.54 44.1117 1057.56 44.0046C1058.62 43.8934 1059.44 43.4414 1060.03 42.6485Z" fill="white"/>
<path d="M1041.47 44.3185C1041.76 45.4582 1042.56 45.9602 1043.85 45.8245C1044.43 45.7631 1044.88 45.5777 1045.21 45.2682C1045.55 44.9578 1045.69 44.5657 1045.64 44.0917C1045.6 43.7188 1045.47 43.4381 1045.25 43.2495C1045.02 43.0532 1044.68 42.9089 1044.21 42.8164L1042.39 42.525C1041.29 42.3503 1040.44 42.0227 1039.86 41.5422C1039.28 41.0617 1038.93 40.3592 1038.84 39.4346C1038.72 38.3701 1039.03 37.4738 1039.76 36.7455C1040.49 36.0087 1041.46 35.5761 1042.68 35.4477C1043.93 35.3169 1044.94 35.5364 1045.72 36.106C1046.51 36.6749 1047.03 37.4958 1047.29 38.5689L1044.72 38.8386C1044.64 38.4309 1044.45 38.1015 1044.15 37.8504C1043.86 37.5985 1043.46 37.4983 1042.97 37.5498C1042.51 37.5989 1042.14 37.7551 1041.88 38.0184C1041.63 38.2732 1041.52 38.5987 1041.56 38.9949C1041.6 39.3445 1041.72 39.5985 1041.93 39.7567C1042.15 39.9064 1042.51 40.0305 1042.99 40.1291L1045.17 40.5003C1047.12 40.8292 1048.19 41.8444 1048.37 43.5459C1048.45 44.3074 1048.29 45.0148 1047.91 45.6682C1047.53 46.3131 1047 46.8324 1046.31 47.2262C1045.64 47.6113 1044.9 47.8464 1044.09 47.9315C1042.78 48.0696 1041.66 47.8655 1040.73 47.3191C1039.8 46.7642 1039.2 45.8535 1038.92 44.587L1041.47 44.3185Z" fill="white"/>
<path d="M1022.87 49.8693L1019.87 50.1857L1018.61 38.2749L1021.53 37.9683L1021.74 39.9962C1021.94 39.2605 1022.37 38.6453 1023.04 38.1506C1023.71 37.6558 1024.52 37.359 1025.46 37.26C1026.86 37.1121 1028.01 37.463 1028.89 38.3128C1029.77 39.1626 1030.3 40.345 1030.45 41.8601L1031.21 48.9926L1028.2 49.3089L1027.5 42.6776C1027.41 41.7841 1027.12 41.0952 1026.65 40.611C1026.17 40.1191 1025.5 39.9185 1024.64 40.0092C1023.82 40.0959 1023.18 40.4381 1022.72 41.0359C1022.27 41.6338 1022.08 42.36 1022.17 43.2147L1022.87 49.8693Z" fill="white"/>
<path d="M1007.21 46.5208C1007.4 47.4433 1007.82 48.1416 1008.47 48.6155C1009.12 49.0895 1009.96 49.2721 1010.99 49.1634C1011.71 49.0882 1012.32 48.886 1012.84 48.5569C1013.35 48.2199 1013.73 47.7951 1013.97 47.2823L1016.77 46.988C1016.45 48.1293 1015.79 49.1138 1014.8 49.9414C1013.81 50.7604 1012.62 51.2431 1011.23 51.3894C1009.24 51.5987 1007.61 51.1772 1006.33 50.125C1005.07 49.072 1004.34 47.6325 1004.15 45.8066C1003.96 44.0041 1004.39 42.4545 1005.44 41.1578C1006.48 39.8534 1007.93 39.1047 1009.76 38.9118C1011.61 38.7173 1013.17 39.1457 1014.45 40.1971C1015.74 41.2477 1016.48 42.6937 1016.68 44.5351L1016.78 45.514L1007.21 46.5208ZM1010.04 41.0618C1009.1 41.1607 1008.36 41.5213 1007.83 42.1437C1007.29 42.7574 1007.01 43.5569 1006.98 44.542L1013.71 43.8344C1013.51 42.9041 1013.09 42.1864 1012.44 41.6814C1011.79 41.1686 1010.99 40.962 1010.04 41.0618Z" fill="white"/>
<path d="M993.746 40.5967C994.749 40.4912 995.65 40.6242 996.451 40.9955C997.259 41.3583 997.848 41.8737 998.217 42.5419L997.996 40.4442L1000.96 40.1327L1002.19 51.8803C1002.35 53.411 1001.87 54.7622 1000.73 55.9342C999.607 57.1053 998.12 57.7881 996.271 57.9827C994.694 58.1486 993.309 57.9447 992.118 57.3709C990.934 56.7963 990.042 55.8611 989.442 54.5652L992.426 54.2512C993.156 55.3685 994.349 55.84 996.003 55.6659C997.068 55.5539 997.89 55.1924 998.47 54.5815C999.05 53.9706 999.288 53.1757 999.185 52.1967L998.941 49.8775C998.643 50.553 998.147 51.1355 997.452 51.625C996.765 52.1136 995.947 52.4078 994.999 52.5075C993.85 52.6285 992.792 52.4726 991.828 52.04C990.871 51.6065 990.1 50.9648 989.516 50.115C988.939 49.2644 988.593 48.2875 988.477 47.1842C988.361 46.0809 988.496 45.0533 988.883 44.1014C989.277 43.1408 989.897 42.349 990.742 41.7258C991.595 41.094 992.596 40.7177 993.746 40.5967ZM995.309 49.965C996.319 49.8588 997.136 49.4468 997.76 48.7292C998.391 48.0107 998.653 47.1426 998.546 46.1248C998.438 45.0992 998.001 44.3007 997.234 43.7294C996.474 43.1495 995.589 42.9127 994.579 43.019C993.537 43.1285 992.729 43.5474 992.154 44.2757C991.585 44.9954 991.354 45.8603 991.46 46.8703C991.566 47.8726 991.975 48.6661 992.689 49.2509C993.403 49.8357 994.276 50.0738 995.309 49.965Z" fill="white"/>
<path d="M978.602 46.1729L986.003 45.3942L986.282 48.0514L978.882 48.8301L978.602 46.1729Z" fill="white"/>
<path d="M969.849 39.8116L972.856 39.4952L973.23 43.0498L976.307 42.7261L976.568 45.2085L973.491 45.5322L974.061 50.9515C974.127 51.5731 974.303 52.0141 974.589 52.2746C974.884 52.5343 975.318 52.6339 975.893 52.5734C976.251 52.5358 976.682 52.4158 977.187 52.2134L977.441 54.6258C977.256 54.7317 976.96 54.8374 976.555 54.9429C976.15 55.0484 975.757 55.1212 975.376 55.1612C974.017 55.3043 972.99 55.0274 972.296 54.3306C971.61 53.6329 971.191 52.5654 971.04 51.128L970.484 45.8486L968.27 46.0815L968.009 43.5992L970.223 43.3662L969.849 39.8116Z" fill="white"/>
<path d="M963.941 44.0272L967.088 43.6961L963.515 50.058L968.469 55.5935L965.288 55.9282L962.181 52.4962L959.869 56.4984L956.699 56.832L960.392 50.3867L955.562 44.9089L958.72 44.5766L961.703 47.951L963.941 44.0272Z" fill="white"/>
<path d="M945.585 53.005C945.776 53.9276 946.195 54.6258 946.842 55.0998C947.489 55.5738 948.329 55.7564 949.362 55.6477C950.077 55.5725 950.692 55.3703 951.208 55.0411C951.722 54.7042 952.102 54.2793 952.346 53.7666L955.143 53.4723C954.823 54.6135 954.165 55.598 953.168 56.4256C952.178 57.2447 950.987 57.7273 949.597 57.8737C947.608 58.0829 945.977 57.6615 944.703 56.6092C943.438 55.5562 942.709 54.1168 942.517 52.2909C942.327 50.4883 942.757 48.9387 943.807 47.6421C944.856 46.3377 946.297 45.589 948.131 45.3961C949.98 45.2015 951.545 45.6299 952.826 46.6813C954.115 47.7319 954.856 49.1779 955.05 51.0193L955.153 51.9983L945.585 53.005ZM948.416 47.546C947.476 47.6449 946.736 48.0056 946.197 48.6279C945.664 49.2417 945.383 50.0411 945.353 51.0262L952.078 50.3187C951.885 49.3884 951.464 48.6707 950.814 48.1656C950.163 47.6528 949.364 47.4463 948.416 47.546Z" fill="white"/>
<path d="M932.364 59.3923L929.357 59.7086L928.104 47.7978L931.018 47.4913L931.231 49.5191C931.429 48.7835 931.863 48.1683 932.533 47.6735C933.204 47.1787 934.009 46.8819 934.95 46.783C936.356 46.635 937.5 46.9859 938.383 47.8357C939.266 48.6855 939.787 49.8679 939.947 51.383L940.697 58.5155L937.69 58.8319L936.993 52.2005C936.899 51.307 936.614 50.6182 936.139 50.134C935.663 49.642 934.994 49.4414 934.131 49.5322C933.308 49.6188 932.668 49.9611 932.212 50.5589C931.757 51.1567 931.574 51.8829 931.664 52.7376L932.364 59.3923Z" fill="white"/>
<rect x="183.2" width="225.695" height="36" rx="18" transform="rotate(11.7438 183.2 0)" fill="#0033FF"/>
<path d="M375.774 67.2281L372.813 66.6127L375.251 54.8868L378.119 55.4831L377.704 57.4795C378.117 56.8391 378.718 56.3855 379.507 56.1188C380.297 55.852 381.154 55.8148 382.08 56.0072C383.464 56.2951 384.448 56.9782 385.029 58.0567C385.611 59.1352 385.747 60.4202 385.437 61.9117L383.977 68.9335L381.017 68.3181L382.374 61.7897C382.557 60.9101 382.496 60.1673 382.191 59.5613C381.888 58.9476 381.311 58.5525 380.462 58.376C379.652 58.2075 378.938 58.3384 378.322 58.7689C377.706 59.1994 377.31 59.8353 377.135 60.6767L375.774 67.2281Z" fill="white"/>
<path d="M367.43 64.8712C366.313 65.2535 365.105 65.3094 363.804 65.0391C362.504 64.7688 361.418 64.2358 360.546 63.4401C359.674 62.6444 359.081 61.7352 358.767 60.7123C358.462 59.6835 358.421 58.6336 358.644 57.5627C358.811 56.7596 359.12 56.0219 359.571 55.3496C360.023 54.6697 360.577 54.0985 361.232 53.6361C361.886 53.1738 362.658 52.8594 363.546 52.693C364.444 52.5205 365.382 52.536 366.361 52.7396C367.34 52.9431 368.203 53.3021 368.95 53.8164C369.706 54.3247 370.293 54.9213 370.709 55.6063C371.125 56.2913 371.405 57.0358 371.549 57.8397C371.695 58.636 371.684 59.4358 371.517 60.2389C371.295 61.3098 370.835 62.2555 370.137 63.0761C369.449 63.8906 368.547 64.489 367.43 64.8712ZM367.653 56.144C367.183 55.6792 366.581 55.3705 365.846 55.2178C365.112 55.0652 364.433 55.1076 363.809 55.3449C363.193 55.5839 362.694 55.9509 362.311 56.4459C361.929 56.941 361.67 57.5136 361.535 58.1638C361.325 59.1735 361.463 60.1038 361.949 60.9548C362.434 61.8058 363.223 62.3449 364.317 62.5723C365.411 62.7997 366.35 62.6199 367.135 62.0329C367.919 61.4459 368.416 60.6475 368.626 59.6378C368.761 58.9877 368.752 58.3594 368.599 57.753C368.446 57.1467 368.13 56.6103 367.653 56.144Z" fill="white"/>
<path d="M351.851 62.2549L354.289 50.529L357.249 51.1444L354.812 62.8703L351.851 62.2549ZM354.775 46.752C354.875 46.2701 355.129 45.8959 355.535 45.6293C355.942 45.3627 356.397 45.2819 356.902 45.3869C357.399 45.4902 357.781 45.7451 358.048 46.1517C358.316 46.5505 358.399 46.9947 358.297 47.4843C358.192 47.9891 357.938 48.371 357.533 48.6299C357.135 48.8905 356.684 48.9683 356.179 48.8633C355.675 48.7584 355.288 48.5064 355.02 48.1076C354.752 47.7087 354.67 47.2569 354.775 46.752Z" fill="white"/>
<path d="M346.652 45.2908L349.613 45.9062L348.885 49.4056L351.914 50.0353L351.406 52.4791L348.377 51.8495L347.268 57.1846C347.141 57.7965 347.174 58.2702 347.367 58.6057C347.569 58.9428 347.952 59.1702 348.518 59.2878C348.87 59.361 349.317 59.3782 349.86 59.3394L349.366 61.7144C349.158 61.7588 348.844 61.7694 348.426 61.7463C348.008 61.7232 347.612 61.6727 347.237 61.5948C345.898 61.3165 345.005 60.7398 344.556 59.8646C344.115 58.9909 344.042 57.8466 344.336 56.4315L345.417 51.2341L343.237 50.7809L343.745 48.337L345.925 48.7902L346.652 45.2908Z" fill="white"/>
<path d="M341.806 47.934L339.368 59.6599L336.534 59.0708L336.954 57.0514C336.443 57.6313 335.762 58.0644 334.913 58.3506C334.065 58.6292 333.159 58.6683 332.195 58.4679C331.063 58.2326 330.099 57.7449 329.303 57.005C328.508 56.265 327.958 55.3768 327.655 54.3403C327.352 53.3037 327.317 52.2233 327.551 51.0989C327.785 49.9745 328.247 48.9974 328.938 48.1675C329.631 47.3301 330.49 46.7306 331.515 46.3691C332.541 45.9999 333.62 45.933 334.752 46.1684C335.746 46.3751 336.576 46.779 337.241 47.3801C337.915 47.9751 338.337 48.6333 338.506 49.3547L338.926 47.3354L341.806 47.934ZM332.046 49.2805C331.239 49.8627 330.727 50.674 330.511 51.7142C330.295 52.7545 330.438 53.6979 330.94 54.5444C331.45 55.3925 332.225 55.9247 333.265 56.1409C334.283 56.3524 335.206 56.1894 336.036 55.6517C336.866 55.1141 337.396 54.2945 337.625 53.1931C337.854 52.0916 337.692 51.1243 337.139 50.2912C336.593 49.4597 335.816 48.939 334.806 48.7291C333.774 48.5144 332.854 48.6982 332.046 49.2805Z" fill="white"/>
<path d="M318.629 51.6978C318.56 52.8724 319.161 53.5918 320.431 53.8557C321.004 53.975 321.495 53.9373 321.902 53.7428C322.318 53.5498 322.574 53.22 322.671 52.7534C322.747 52.3863 322.707 52.0788 322.551 51.8309C322.397 51.5754 322.112 51.3327 321.697 51.1028L320.051 50.2698C319.054 49.7673 318.351 49.1982 317.94 48.5623C317.53 47.9264 317.419 47.1533 317.608 46.2431C317.826 45.1952 318.391 44.4349 319.304 43.9622C320.225 43.4835 321.286 43.3689 322.487 43.6186C323.711 43.873 324.609 44.3908 325.18 45.1719C325.76 45.9547 326.007 46.8958 325.922 47.9953L323.398 47.4705C323.444 47.0572 323.362 46.685 323.151 46.354C322.948 46.0246 322.606 45.8098 322.124 45.7096C321.665 45.6142 321.27 45.6518 320.94 45.8224C320.618 45.987 320.417 46.2643 320.336 46.6544C320.264 46.9986 320.306 47.2786 320.46 47.4942C320.624 47.7039 320.921 47.929 321.349 48.1698L323.316 49.189C325.074 50.0972 325.779 51.3888 325.431 53.0639C325.275 53.8135 324.913 54.4405 324.346 54.9449C323.787 55.4432 323.123 55.776 322.355 55.9434C321.595 56.1046 320.817 56.1026 320.022 55.9372C318.729 55.6685 317.723 55.1322 317.005 54.3285C316.295 53.5187 315.999 52.4677 316.116 51.1754L318.629 51.6978Z" fill="white"/>
<path d="M309.904 53.5347L312.342 41.8088L315.302 42.4242L312.865 54.1501L309.904 53.5347ZM312.828 38.0318C312.928 37.5499 313.182 37.1757 313.588 36.9091C313.995 36.6425 314.45 36.5617 314.955 36.6666C315.452 36.77 315.834 37.0249 316.101 37.4315C316.369 37.8303 316.452 38.2745 316.35 38.7641C316.245 39.2689 315.991 39.6508 315.586 39.9097C315.188 40.1702 314.737 40.248 314.232 40.1431C313.728 40.0381 313.341 39.7862 313.073 39.3874C312.805 38.9885 312.723 38.5366 312.828 38.0318Z" fill="white"/>
<path d="M303.606 52.2252L307.171 35.0724L310.132 35.6878L306.566 52.8406L303.606 52.2252Z" fill="white"/>
<path d="M302.796 39.8243L300.359 51.5502L297.525 50.961L297.944 48.9417C297.433 49.5216 296.752 49.9546 295.903 50.2409C295.055 50.5194 294.149 50.5585 293.185 50.3582C292.053 50.1228 291.089 49.6352 290.294 48.8952C289.498 48.1553 288.949 47.267 288.645 46.2305C288.342 45.194 288.307 44.1135 288.541 42.9891C288.775 41.8647 289.237 40.8876 289.929 40.0578C290.621 39.2203 291.48 38.6209 292.505 38.2594C293.531 37.8902 294.61 37.8233 295.742 38.0586C296.737 38.2654 297.566 38.6692 298.231 39.2703C298.906 39.8653 299.327 40.5235 299.497 41.2449L299.916 39.2256L302.796 39.8243ZM293.037 41.1707C292.229 41.753 291.718 42.5642 291.501 43.6045C291.285 44.6448 291.428 45.5881 291.93 46.4347C292.44 47.2828 293.215 47.8149 294.256 48.0312C295.273 48.2427 296.197 48.0796 297.026 47.542C297.856 47.0043 298.386 46.1848 298.615 45.0833C298.844 43.9819 298.682 43.0146 298.129 42.1815C297.584 41.35 296.806 40.8293 295.796 40.6194C294.764 40.4047 293.844 40.5885 293.037 41.1707Z" fill="white"/>
<path d="M277.115 41.6432C277.016 42.5802 277.202 43.3729 277.674 44.0216C278.146 44.6702 278.89 45.1003 279.907 45.3118C280.611 45.458 281.258 45.453 281.849 45.2966C282.442 45.1325 282.933 44.8436 283.322 44.4298L286.076 45.0022C285.423 45.9917 284.496 46.7286 283.294 47.2128C282.102 47.691 280.821 47.7878 279.452 47.5032C277.494 47.0961 276.069 46.1974 275.177 44.8071C274.292 43.4183 274.037 41.8252 274.411 40.0277C274.78 38.2531 275.662 36.9084 277.057 35.9935C278.453 35.071 280.054 34.7974 281.859 35.1726C283.68 35.5511 285.04 36.4363 285.94 37.8282C286.847 39.2217 287.112 40.8249 286.735 42.6377L286.535 43.6014L277.115 41.6432ZM281.476 37.3072C280.55 37.1147 279.736 37.2327 279.032 37.661C278.338 38.0832 277.826 38.7589 277.498 39.6879L284.118 41.0642C284.218 40.1196 284.036 39.3077 283.571 38.6285C283.107 37.9416 282.409 37.5011 281.476 37.3072Z" fill="white"/>
<path d="M273.976 36.7056L273.334 36.572C272.163 36.3288 271.225 36.4649 270.52 36.9805C269.814 37.4961 269.336 38.3544 269.087 39.5553L267.992 44.8216L265.032 44.2062L267.47 32.4803L270.338 33.0766L269.82 35.5664C270.221 34.716 270.849 34.1484 271.706 33.8638C272.563 33.5792 273.524 33.5474 274.587 33.7684L273.976 36.7056Z" fill="white"/>
<path d="M248.051 40.6761L245.091 40.0607L247.529 28.3348L250.397 28.9311L249.982 30.9275C250.394 30.2871 250.995 29.8335 251.785 29.5668C252.575 29.3 253.432 29.2628 254.358 29.4552C255.742 29.7431 256.725 30.4262 257.307 31.5047C257.889 32.5832 258.024 33.8682 257.714 35.3597L256.255 42.3815L253.294 41.7661L254.652 35.2377C254.835 34.3581 254.773 33.6152 254.469 33.0093C254.165 32.3956 253.589 32.0005 252.74 31.824C251.929 31.6555 251.216 31.7864 250.6 32.2169C249.983 32.6474 249.588 33.2833 249.413 34.1247L248.051 40.6761Z" fill="white"/>
<path d="M239.708 38.3192C238.591 38.7015 237.382 38.7574 236.082 38.4871C234.782 38.2168 233.696 37.6838 232.824 36.8881C231.952 36.0924 231.359 35.1832 231.045 34.1603C230.74 33.1315 230.699 32.0816 230.922 31.0107C231.089 30.2076 231.397 29.4699 231.848 28.7976C232.301 28.1177 232.855 27.5465 233.509 27.0841C234.164 26.6218 234.936 26.3074 235.824 26.141C236.722 25.9685 237.66 25.984 238.639 26.1876C239.618 26.3911 240.481 26.7501 241.228 27.2644C241.984 27.7727 242.57 28.3693 242.986 29.0543C243.403 29.7393 243.683 30.4838 243.827 31.2877C243.972 32.084 243.962 32.8838 243.795 33.6869C243.572 34.7578 243.112 35.7035 242.415 36.5241C241.727 37.3386 240.825 37.937 239.708 38.3192ZM239.93 29.592C239.46 29.1272 238.858 28.8185 238.124 28.6658C237.389 28.5132 236.71 28.5555 236.087 28.7929C235.47 29.0319 234.971 29.3989 234.589 29.8939C234.207 30.389 233.948 30.9616 233.813 31.6118C233.603 32.6215 233.741 33.5518 234.226 34.4028C234.711 35.2537 235.501 35.7929 236.595 36.0203C237.689 36.2477 238.628 36.0679 239.412 35.4809C240.196 34.8939 240.694 34.0955 240.903 33.0858C241.039 32.4357 241.03 31.8074 240.876 31.201C240.723 30.5947 240.408 30.0583 239.93 29.592Z" fill="white"/>
<path d="M224.129 35.7029L226.567 23.977L229.527 24.5924L227.089 36.3183L224.129 35.7029ZM227.053 20.2C227.153 19.7181 227.406 19.3439 227.813 19.0773C228.219 18.8107 228.675 18.7299 229.18 18.8348C229.677 18.9382 230.059 19.1931 230.325 19.5997C230.594 19.9985 230.677 20.4427 230.575 20.9323C230.47 21.4371 230.215 21.819 229.81 22.0779C229.413 22.3385 228.962 22.4163 228.457 22.3113C227.952 22.2064 227.566 21.9544 227.298 21.5556C227.029 21.1567 226.948 20.7049 227.053 20.2Z" fill="white"/>
<path d="M215.597 30.2787C215.529 31.4534 216.129 32.1727 217.399 32.4367C217.973 32.5559 218.463 32.5183 218.871 32.3237C219.286 32.1307 219.542 31.8009 219.639 31.3343C219.715 30.9672 219.676 30.6597 219.52 30.4118C219.365 30.1563 219.081 29.9136 218.666 29.6837L217.019 28.8507C216.023 28.3483 215.319 27.7791 214.909 27.1432C214.498 26.5073 214.388 25.7342 214.577 24.824C214.795 23.7761 215.36 23.0158 216.272 22.5431C217.193 22.0644 218.255 21.9499 219.455 22.1995C220.679 22.4539 221.577 22.9717 222.149 23.7529C222.728 24.5356 222.975 25.4767 222.89 26.5762L220.366 26.0515C220.412 25.6381 220.33 25.2659 220.12 24.9349C219.917 24.6055 219.574 24.3907 219.093 24.2905C218.634 24.1951 218.239 24.2327 217.908 24.4033C217.587 24.5679 217.385 24.8453 217.304 25.2354C217.233 25.5796 217.274 25.8595 217.429 26.0752C217.593 26.2848 217.889 26.51 218.318 26.7507L220.284 27.77C222.043 28.6781 222.748 29.9697 222.399 31.6448C222.243 32.3944 221.882 33.0214 221.314 33.5258C220.756 34.0242 220.092 34.357 219.323 34.5243C218.563 34.6856 217.786 34.6835 216.99 34.5181C215.698 34.2494 214.692 33.7132 213.973 32.9094C213.264 32.0997 212.968 31.0486 213.085 29.7563L215.597 30.2787Z" fill="white"/>
<path d="M206.873 32.1156L209.311 20.3898L212.271 21.0051L209.833 32.731L206.873 32.1156ZM209.797 16.6127C209.897 16.1309 210.15 15.7566 210.557 15.49C210.963 15.2234 211.419 15.1426 211.924 15.2476C212.421 15.3509 212.803 15.6059 213.069 16.0124C213.337 16.4113 213.421 16.8555 213.319 17.345C213.214 17.8498 212.959 18.2317 212.554 18.4907C212.157 18.7512 211.706 18.829 211.201 18.724C210.696 18.6191 210.31 18.3672 210.041 17.9683C209.773 17.5694 209.692 17.1176 209.797 16.6127Z" fill="white"/>
<path d="M194.992 17.4131L198.032 18.0452L199.442 27.0399L204.331 19.3546L207.36 19.9843L200.058 30.6989L197.419 30.1503L194.992 17.4131Z" fill="white"/>
<rect x="661.363" y="231.124" width="432.496" height="36" rx="18" transform="rotate(-5.42267 661.363 231.124)" fill="#D9D9D9"/>
<path d="M1059.78 205.216C1060.78 205.121 1061.68 205.263 1062.48 205.643C1063.28 206.014 1063.86 206.535 1064.23 207.207L1064.03 205.107L1066.99 204.826L1068.11 216.585C1068.25 218.118 1067.75 219.464 1066.61 220.624C1065.47 221.784 1063.97 222.451 1062.12 222.627C1060.54 222.777 1059.16 222.559 1057.98 221.973C1056.8 221.387 1055.92 220.442 1055.33 219.14L1058.32 218.857C1059.04 219.981 1060.22 220.465 1061.88 220.308C1062.95 220.207 1063.77 219.854 1064.36 219.249C1064.94 218.644 1065.19 217.851 1065.1 216.871L1064.88 214.55C1064.57 215.222 1064.07 215.799 1063.37 216.282C1062.68 216.763 1061.86 217.049 1060.91 217.139C1059.76 217.249 1058.7 217.082 1057.74 216.639C1056.79 216.196 1056.02 215.547 1055.45 214.691C1054.88 213.835 1054.54 212.854 1054.44 211.75C1054.34 210.645 1054.48 209.619 1054.88 208.671C1055.28 207.715 1055.91 206.929 1056.76 206.315C1057.62 205.692 1058.63 205.326 1059.78 205.216ZM1061.24 214.6C1062.25 214.504 1063.08 214.101 1063.71 213.389C1064.35 212.677 1064.62 211.812 1064.52 210.793C1064.42 209.766 1063.99 208.964 1063.23 208.384C1062.48 207.797 1061.59 207.551 1060.58 207.647C1059.54 207.746 1058.73 208.157 1058.15 208.879C1057.57 209.593 1057.33 210.455 1057.43 211.466C1057.52 212.47 1057.92 213.267 1058.63 213.859C1059.34 214.451 1060.21 214.698 1061.24 214.6Z" fill="black"/>
<path d="M1044.24 219.016L1041.23 219.301L1040.1 207.378L1043.02 207.102L1043.21 209.132C1043.41 208.398 1043.85 207.787 1044.53 207.299C1045.21 206.811 1046.01 206.523 1046.95 206.433C1048.36 206.3 1049.5 206.662 1050.38 207.521C1051.25 208.38 1051.76 209.567 1051.9 211.084L1052.58 218.224L1049.57 218.51L1048.94 211.871C1048.86 210.977 1048.58 210.285 1048.11 209.796C1047.64 209.3 1046.97 209.092 1046.11 209.174C1045.28 209.252 1044.64 209.588 1044.18 210.181C1043.72 210.774 1043.53 211.499 1043.61 212.354L1044.24 219.016Z" fill="black"/>
<path d="M1034.83 219.909L1033.69 207.986L1036.7 207.701L1037.84 219.624L1034.83 219.909ZM1033.04 204.234C1033 203.744 1033.13 203.312 1033.44 202.937C1033.75 202.563 1034.16 202.351 1034.67 202.302C1035.18 202.254 1035.62 202.385 1035.99 202.695C1036.37 202.997 1036.58 203.397 1036.63 203.894C1036.67 204.408 1036.54 204.848 1036.23 205.215C1035.93 205.581 1035.52 205.788 1035.01 205.837C1034.5 205.886 1034.05 205.759 1033.68 205.457C1033.3 205.155 1033.09 204.748 1033.04 204.234Z" fill="black"/>
<path d="M1026.75 203.077L1029.76 202.792L1031.42 220.233L1028.54 220.506L1028.34 218.453C1028.03 219.158 1027.5 219.773 1026.78 220.297C1026.05 220.813 1025.19 221.118 1024.21 221.211C1023.06 221.32 1022 221.139 1021.02 220.667C1020.04 220.195 1019.25 219.508 1018.66 218.607C1018.06 217.706 1017.71 216.684 1017.6 215.541C1017.49 214.398 1017.65 213.328 1018.06 212.331C1018.48 211.326 1019.12 210.5 1019.99 209.852C1020.86 209.196 1021.88 208.814 1023.03 208.705C1024.03 208.61 1024.93 208.748 1025.72 209.121C1026.5 209.493 1027.09 210.002 1027.47 210.649L1026.75 203.077ZM1021.36 212.477C1020.76 213.271 1020.51 214.198 1020.61 215.255C1020.71 216.313 1021.13 217.172 1021.86 217.833C1022.59 218.493 1023.49 218.772 1024.55 218.672C1025.58 218.574 1026.42 218.145 1027.05 217.387C1027.69 216.628 1027.95 215.689 1027.85 214.569C1027.74 213.449 1027.3 212.572 1026.52 211.94C1025.76 211.306 1024.86 211.038 1023.83 211.135C1022.78 211.235 1021.96 211.682 1021.36 212.477Z" fill="black"/>
<path d="M1012.6 222.019L1010.95 204.578L1013.96 204.292L1015.61 221.733L1012.6 222.019Z" fill="black"/>
<path d="M1006.2 222.627L1005.07 210.704L1008.08 210.418L1009.21 222.341L1006.2 222.627ZM1004.42 206.952C1004.37 206.462 1004.5 206.03 1004.81 205.655C1005.12 205.28 1005.53 205.068 1006.04 205.02C1006.55 204.972 1006.99 205.103 1007.36 205.412C1007.74 205.714 1007.95 206.114 1008 206.612C1008.05 207.125 1007.91 207.565 1007.6 207.932C1007.3 208.298 1006.89 208.506 1006.38 208.555C1005.87 208.603 1005.42 208.477 1005.05 208.175C1004.68 207.873 1004.46 207.465 1004.42 206.952Z" fill="black"/>
<path d="M998.672 211.311L1001.68 211.025L1002.81 222.948L999.921 223.223L999.73 221.216C999.494 221.945 999.045 222.553 998.385 223.039C997.724 223.518 996.931 223.801 996.005 223.889C994.605 224.022 993.473 223.666 992.608 222.822C991.75 221.97 991.249 220.782 991.104 219.257L990.424 212.094L993.434 211.808L994.069 218.493C994.255 220.453 995.184 221.354 996.856 221.195C997.704 221.114 998.344 220.787 998.776 220.212C999.215 219.629 999.393 218.902 999.31 218.031L998.672 211.311Z" fill="black"/>
<path d="M984.782 221.352C985.39 220.565 985.643 219.642 985.543 218.584C985.443 217.527 985.019 216.664 984.273 215.997C983.535 215.33 982.637 215.046 981.579 215.147C980.56 215.243 979.73 215.675 979.089 216.442C978.456 217.209 978.192 218.152 978.298 219.272C978.405 220.392 978.841 221.265 979.606 221.891C980.38 222.516 981.276 222.78 982.295 222.683C983.352 222.583 984.181 222.139 984.782 221.352ZM977.207 207.781L977.926 215.352C978.173 214.646 978.653 214.035 979.365 213.52C980.077 213.006 980.935 212.7 981.938 212.605C983.089 212.496 984.155 212.681 985.134 213.161C986.113 213.633 986.9 214.324 987.497 215.232C988.092 216.133 988.444 217.155 988.553 218.299C988.661 219.442 988.508 220.512 988.093 221.509C987.677 222.506 987.033 223.328 986.161 223.976C985.288 224.624 984.277 225.002 983.126 225.111C982.138 225.205 981.242 225.067 980.438 224.696C979.633 224.317 979.004 223.812 978.551 223.18L978.746 225.233L975.853 225.508L974.198 208.066L977.207 207.781Z" fill="black"/>
<path d="M957.499 222.259C957.681 223.183 958.093 223.886 958.735 224.366C959.377 224.847 960.215 225.038 961.25 224.94C961.965 224.872 962.582 224.676 963.101 224.352C963.619 224.02 964.003 223.599 964.252 223.089L967.052 222.823C966.721 223.961 966.052 224.939 965.047 225.756C964.049 226.565 962.853 227.036 961.461 227.168C959.47 227.357 957.843 226.919 956.581 225.854C955.326 224.788 954.612 223.341 954.438 221.513C954.267 219.709 954.713 218.164 955.776 216.878C956.838 215.584 958.287 214.85 960.122 214.676C961.973 214.5 963.534 214.945 964.805 216.009C966.083 217.073 966.809 218.526 966.984 220.37L967.077 221.35L957.499 222.259ZM960.386 216.829C959.445 216.918 958.701 217.271 958.155 217.888C957.617 218.496 957.327 219.293 957.288 220.278L964.019 219.639C963.836 218.707 963.422 217.985 962.778 217.473C962.132 216.953 961.334 216.739 960.386 216.829Z" fill="black"/>
<path d="M946.093 224.742C946.374 225.885 947.16 226.395 948.451 226.272C949.035 226.217 949.492 226.036 949.824 225.73C950.164 225.423 950.311 225.033 950.266 224.558C950.231 224.185 950.102 223.903 949.88 223.712C949.657 223.513 949.313 223.365 948.849 223.268L947.03 222.958C945.929 222.772 945.089 222.436 944.509 221.95C943.93 221.463 943.596 220.757 943.508 219.832C943.407 218.766 943.722 217.873 944.454 217.152C945.193 216.423 946.173 216 947.394 215.884C948.639 215.766 949.65 215.996 950.426 216.574C951.211 217.151 951.725 217.977 951.968 219.052L949.402 219.296C949.324 218.887 949.135 218.556 948.836 218.302C948.545 218.047 948.155 217.943 947.665 217.989C947.198 218.034 946.832 218.186 946.567 218.447C946.308 218.699 946.197 219.023 946.235 219.42C946.268 219.77 946.391 220.025 946.602 220.186C946.821 220.337 947.17 220.465 947.651 220.569L949.831 220.962C951.778 221.311 952.833 222.337 952.995 224.04C953.067 224.802 952.907 225.508 952.513 226.158C952.127 226.799 951.591 227.312 950.906 227.699C950.227 228.078 949.484 228.305 948.675 228.382C947.361 228.507 946.241 228.291 945.318 227.735C944.401 227.171 943.808 226.254 943.538 224.985L946.093 224.742Z" fill="black"/>
<path d="M938.299 229.072L937.168 217.149L940.177 216.864L941.309 228.787L938.299 229.072ZM936.517 213.397C936.471 212.907 936.602 212.475 936.912 212.1C937.222 211.726 937.633 211.514 938.146 211.465C938.652 211.417 939.092 211.548 939.467 211.858C939.841 212.16 940.051 212.559 940.099 213.057C940.147 213.571 940.016 214.011 939.706 214.378C939.403 214.744 938.995 214.951 938.482 215C937.969 215.049 937.525 214.922 937.151 214.62C936.777 214.318 936.566 213.911 936.517 213.397Z" fill="black"/>
<path d="M928.332 217.694C929.903 217.545 931.282 217.853 932.469 218.62C933.663 219.377 934.489 220.39 934.947 221.657L932.042 221.933C931.307 220.637 930.142 220.065 928.548 220.216C927.451 220.32 926.622 220.764 926.061 221.547C925.5 222.33 925.269 223.247 925.368 224.296C925.468 225.346 925.867 226.203 926.566 226.867C927.264 227.522 928.161 227.798 929.258 227.694C930.86 227.542 931.896 226.757 932.365 225.339L935.27 225.063C935.059 226.394 934.439 227.548 933.409 228.524C932.387 229.492 931.09 230.051 929.519 230.2C928.236 230.322 927.066 230.154 926.011 229.697C924.955 229.241 924.114 228.567 923.488 227.677C922.861 226.779 922.493 225.747 922.382 224.58C922.212 222.791 922.677 221.244 923.778 219.939C924.877 218.626 926.395 217.878 928.332 217.694Z" fill="black"/>
<path d="M911.067 226.666C911.249 227.591 911.661 228.293 912.303 228.774C912.945 229.254 913.783 229.446 914.818 229.347C915.533 229.279 916.15 229.084 916.669 228.76C917.187 228.428 917.571 228.007 917.82 227.497L920.62 227.231C920.289 228.369 919.621 229.347 918.615 230.164C917.617 230.973 916.422 231.443 915.029 231.576C913.038 231.765 911.412 231.327 910.149 230.261C908.894 229.196 908.18 227.749 908.007 225.921C907.835 224.117 908.281 222.572 909.344 221.286C910.406 219.992 911.855 219.258 913.691 219.084C915.542 218.908 917.102 219.352 918.373 220.417C919.651 221.48 920.377 222.934 920.552 224.777L920.645 225.757L911.067 226.666ZM913.954 221.236C913.013 221.326 912.269 221.679 911.724 222.296C911.185 222.904 910.896 223.701 910.856 224.685L917.587 224.046C917.404 223.114 916.991 222.392 916.346 221.881C915.7 221.361 914.903 221.146 913.954 221.236Z" fill="black"/>
<path d="M906.611 222.875L905.958 222.937C904.768 223.05 903.912 223.457 903.39 224.158C902.868 224.859 902.665 225.82 902.781 227.041L903.289 232.396L900.279 232.682L899.147 220.759L902.064 220.482L902.304 223.013C902.435 222.083 902.869 221.355 903.603 220.83C904.338 220.305 905.246 219.991 906.328 219.889L906.611 222.875Z" fill="black"/>
<path d="M887.943 238.891L884.933 239.176L883.327 222.26L886.221 221.986L886.416 224.039C886.741 223.333 887.264 222.722 887.984 222.207C888.703 221.683 889.557 221.375 890.545 221.281C891.696 221.172 892.761 221.357 893.74 221.837C894.719 222.309 895.507 222.999 896.103 223.908C896.698 224.809 897.051 225.831 897.159 226.974C897.268 228.118 897.114 229.188 896.699 230.184C896.283 231.181 895.639 232.004 894.767 232.652C893.895 233.299 892.883 233.678 891.732 233.787C890.721 233.883 889.817 233.749 889.021 233.385C888.233 233.013 887.65 232.499 887.274 231.844L887.943 238.891ZM893.388 230.028C893.996 229.24 894.25 228.318 894.149 227.26C894.049 226.202 893.626 225.34 892.88 224.673C892.141 224.005 891.243 223.722 890.185 223.822C889.167 223.919 888.337 224.351 887.695 225.118C887.062 225.885 886.798 226.828 886.904 227.948C887.011 229.068 887.447 229.941 888.212 230.566C888.986 231.191 889.882 231.455 890.901 231.359C891.959 231.258 892.788 230.815 893.388 230.028Z" fill="black"/>
<path d="M871.872 233.766C871.821 233.237 871.951 232.781 872.26 232.398C872.569 232.016 872.999 231.799 873.551 231.746C874.104 231.694 874.568 231.826 874.943 232.144C875.326 232.461 875.543 232.883 875.593 233.412C875.643 233.933 875.509 234.382 875.191 234.757C874.881 235.132 874.45 235.345 873.898 235.398C873.346 235.45 872.882 235.321 872.508 235.012C872.133 234.702 871.921 234.287 871.872 233.766Z" fill="black"/>
<path d="M860.679 224.116C861.682 224.021 862.583 224.163 863.38 224.542C864.184 224.913 864.767 225.435 865.129 226.107L864.93 224.007L867.893 223.725L869.009 235.485C869.155 237.017 868.655 238.364 867.509 239.524C866.372 240.683 864.877 241.351 863.026 241.527C861.447 241.677 860.065 241.459 858.88 240.873C857.702 240.286 856.819 239.342 856.233 238.04L859.219 237.756C859.938 238.881 861.126 239.365 862.783 239.207C863.848 239.106 864.674 238.753 865.26 238.148C865.846 237.543 866.093 236.751 866 235.771L865.779 233.449C865.474 234.122 864.972 234.699 864.272 235.181C863.58 235.663 862.76 235.949 861.811 236.039C860.66 236.148 859.604 235.982 858.644 235.539C857.692 235.096 856.928 234.446 856.352 233.591C855.784 232.734 855.448 231.754 855.343 230.65C855.238 229.545 855.384 228.519 855.78 227.571C856.184 226.614 856.812 225.829 857.664 225.214C858.523 224.591 859.528 224.225 860.679 224.116ZM862.147 233.5C863.158 233.404 863.979 233 864.61 232.289C865.248 231.577 865.519 230.712 865.423 229.693C865.325 228.666 864.896 227.863 864.135 227.284C863.38 226.697 862.498 226.451 861.487 226.547C860.444 226.646 859.632 227.056 859.049 227.779C858.473 228.492 858.233 229.355 858.329 230.366C858.425 231.369 858.826 232.167 859.534 232.759C860.241 233.351 861.112 233.598 862.147 233.5Z" fill="black"/>
<path d="M845.144 237.915L842.134 238.201L841.002 226.278L843.919 226.001L844.112 228.031C844.317 227.298 844.757 226.687 845.433 226.199C846.108 225.711 846.917 225.422 847.858 225.333C849.265 225.199 850.406 225.562 851.281 226.421C852.155 227.279 852.664 228.467 852.808 229.984L853.485 237.124L850.476 237.409L849.845 230.771C849.76 229.877 849.483 229.185 849.013 228.696C848.542 228.199 847.875 227.992 847.011 228.074C846.187 228.152 845.544 228.488 845.082 229.081C844.621 229.674 844.43 230.398 844.512 231.254L845.144 237.915Z" fill="black"/>
<path d="M835.729 238.809L834.597 226.886L837.607 226.6L838.739 238.523L835.729 238.809ZM833.947 223.134C833.9 222.644 834.032 222.212 834.342 221.837C834.652 221.462 835.063 221.25 835.576 221.202C836.082 221.154 836.522 221.285 836.897 221.594C837.271 221.896 837.481 222.296 837.529 222.794C837.577 223.307 837.446 223.747 837.136 224.114C836.833 224.48 836.425 224.688 835.912 224.737C835.399 224.785 834.955 224.659 834.581 224.357C834.207 224.055 833.996 223.647 833.947 223.134Z" fill="black"/>
<path d="M822.091 240.104L820.436 222.663L823.446 222.377L824.512 233.612L828.613 227.454L832.054 227.128L827.736 233.47L833.443 239.026L829.861 239.366L824.554 234.055L825.101 239.818L822.091 240.104Z" fill="black"/>
<path d="M810.565 241.198L807.555 241.484L806.423 229.561L809.34 229.284L809.533 231.314C809.738 230.58 810.178 229.969 810.854 229.481C811.529 228.993 812.338 228.705 813.279 228.616C814.687 228.482 815.828 228.844 816.702 229.703C817.576 230.562 818.085 231.75 818.229 233.266L818.907 240.406L815.897 240.692L815.267 234.054C815.182 233.159 814.904 232.467 814.434 231.978C813.963 231.482 813.296 231.274 812.433 231.356C811.608 231.434 810.965 231.77 810.503 232.363C810.042 232.956 809.852 233.681 809.933 234.536L810.565 241.198Z" fill="black"/>
<path d="M801.15 242.092L800.019 230.169L803.029 229.883L804.16 241.806L801.15 242.092ZM799.368 226.416C799.322 225.926 799.453 225.494 799.763 225.119C800.073 224.745 800.484 224.533 800.998 224.484C801.503 224.436 801.943 224.567 802.318 224.877C802.692 225.179 802.902 225.579 802.95 226.076C802.998 226.59 802.868 227.03 802.557 227.397C802.254 227.763 801.846 227.97 801.333 228.019C800.82 228.068 800.376 227.941 800.002 227.639C799.628 227.337 799.417 226.93 799.368 226.416Z" fill="black"/>
<path d="M789.519 243.196L786.509 243.481L784.854 226.04L787.863 225.755L788.571 233.209C788.822 232.464 789.264 231.868 789.897 231.424C790.529 230.971 791.307 230.701 792.233 230.613C793.641 230.48 794.781 230.842 795.656 231.701C796.53 232.56 797.039 233.747 797.183 235.264L797.86 242.404L794.851 242.69L794.22 236.051C794.136 235.157 793.858 234.465 793.388 233.976C792.917 233.48 792.25 233.272 791.386 233.354C790.57 233.432 789.926 233.763 789.456 234.35C788.994 234.935 788.804 235.663 788.887 236.534L789.519 243.196Z" fill="black"/>
<path d="M776.64 228.798L779.65 228.512L779.987 232.07L783.067 231.778L783.303 234.263L780.223 234.555L780.738 239.98C780.797 240.602 780.969 241.045 781.253 241.308C781.545 241.571 781.978 241.675 782.554 241.62C782.911 241.586 783.344 241.471 783.851 241.274L784.08 243.688C783.894 243.792 783.598 243.895 783.191 243.997C782.785 244.098 782.391 244.167 782.01 244.203C780.649 244.332 779.625 244.045 778.938 243.341C778.259 242.636 777.852 241.564 777.715 240.126L777.213 234.841L774.997 235.051L774.761 232.566L776.977 232.356L776.64 228.798Z" fill="black"/>
<path d="M759.957 246.002L756.947 246.288L755.815 234.365L758.731 234.088L758.924 236.118C759.129 235.384 759.569 234.774 760.245 234.286C760.921 233.798 761.729 233.509 762.67 233.42C764.078 233.286 765.219 233.649 766.093 234.507C766.967 235.366 767.476 236.554 767.62 238.07L768.298 245.21L765.288 245.496L764.658 238.858C764.573 237.963 764.295 237.272 763.825 236.783C763.354 236.286 762.687 236.078 761.824 236.16C760.999 236.239 760.356 236.574 759.895 237.168C759.433 237.761 759.243 238.485 759.324 239.341L759.957 246.002Z" fill="black"/>
<path d="M752.513 234.678L753.645 246.601L750.764 246.875L750.569 244.821C750.251 245.526 749.729 246.141 749.001 246.665C748.274 247.182 747.42 247.486 746.44 247.579C745.289 247.689 744.224 247.507 743.245 247.035C742.266 246.563 741.479 245.876 740.884 244.976C740.288 244.075 739.936 243.053 739.827 241.909C739.719 240.766 739.872 239.696 740.288 238.699C740.703 237.694 741.346 236.868 742.218 236.22C743.09 235.565 744.101 235.182 745.252 235.073C746.264 234.977 747.175 235.118 747.988 235.496C748.808 235.866 749.405 236.37 749.78 237.009L749.585 234.956L752.513 234.678ZM743.586 238.845C742.986 239.64 742.737 240.566 742.837 241.624C742.938 242.681 743.353 243.541 744.083 244.201C744.82 244.861 745.718 245.141 746.775 245.04C747.81 244.942 748.644 244.514 749.278 243.755C749.913 242.996 750.177 242.057 750.07 240.937C749.964 239.817 749.524 238.941 748.75 238.308C747.983 237.674 747.087 237.406 746.06 237.504C745.01 237.603 744.185 238.051 743.586 238.845Z" fill="black"/>
<path d="M721.691 249.634L718.681 249.92L717.549 237.997L720.466 237.72L720.659 239.75C720.871 239.008 721.299 238.398 721.945 237.921C722.589 237.436 723.378 237.15 724.312 237.061C726.131 236.888 727.473 237.542 728.335 239.021C729.145 237.383 730.51 236.472 732.431 236.29C733.831 236.157 734.948 236.518 735.783 237.373C736.625 238.227 737.119 239.42 737.265 240.952L737.942 248.092L734.932 248.377L734.302 241.739C734.116 239.779 733.21 238.877 731.585 239.031C730.776 239.108 730.151 239.43 729.711 239.997C729.277 240.556 729.1 241.248 729.178 242.073L729.823 248.862L726.813 249.148L726.183 242.51C725.996 240.55 725.091 239.647 723.465 239.802C722.649 239.879 722.021 240.213 721.583 240.804C721.151 241.387 720.977 242.11 721.059 242.973L721.691 249.634Z" fill="black"/>
<path d="M711.261 238.594L714.271 238.308L715.403 250.231L712.51 250.506L712.319 248.499C712.082 249.228 711.634 249.836 710.974 250.322C710.313 250.801 709.52 251.084 708.594 251.172C707.194 251.305 706.062 250.949 705.197 250.105C704.339 249.253 703.838 248.065 703.693 246.54L703.013 239.377L706.023 239.091L706.658 245.776C706.844 247.736 707.773 248.637 709.445 248.478C710.293 248.397 710.933 248.07 711.365 247.495C711.804 246.912 711.982 246.185 711.899 245.314L711.261 238.594Z" fill="black"/>
<path d="M692.735 252.383L689.725 252.669L688.07 235.228L691.08 234.942L691.787 242.397C692.038 241.651 692.48 241.056 693.113 240.611C693.745 240.159 694.524 239.889 695.449 239.801C696.857 239.667 697.998 240.03 698.872 240.888C699.746 241.747 700.255 242.935 700.399 244.451L701.077 251.591L698.067 251.877L697.437 245.239C697.352 244.344 697.074 243.653 696.604 243.164C696.133 242.667 695.466 242.46 694.603 242.541C693.786 242.619 693.143 242.951 692.673 243.537C692.21 244.122 692.02 244.851 692.103 245.722L692.735 252.383Z" fill="black"/>
<rect y="66.0193" width="131.365" height="36" rx="18" transform="rotate(-5.97625 0 66.0193)" fill="#D9D9D9"/>
<path d="M105.946 74.3168C106.137 75.2394 106.556 75.9379 107.203 76.4122C107.849 76.8865 108.689 77.0696 109.723 76.9614C110.438 76.8866 111.053 76.6847 111.568 76.3558C112.083 76.0192 112.462 75.5945 112.707 75.0819L115.504 74.789C115.184 75.9302 114.525 76.9143 113.528 77.7414C112.537 78.5599 111.347 79.0419 109.956 79.1875C107.967 79.3958 106.336 78.9734 105.063 77.9206C103.798 76.8668 103.07 75.427 102.879 73.6011C102.69 71.7984 103.121 70.249 104.171 68.9529C105.221 67.6491 106.663 66.9011 108.496 66.7092C110.346 66.5156 111.91 66.9448 113.191 67.9969C114.479 69.0482 115.22 70.4946 115.413 72.3361L115.515 73.3151L105.946 74.3168ZM108.78 68.8593C107.84 68.9577 107.1 69.3179 106.56 69.94C106.028 70.5535 105.746 71.3528 105.716 72.3379L112.441 71.6339C112.249 70.7035 111.828 69.9856 111.178 69.4802C110.528 68.967 109.728 68.76 108.78 68.8593Z" fill="black"/>
<path d="M91.5569 80.8191L89.7328 63.3948L92.7398 63.08L93.9148 74.3038L97.9556 68.1072L101.394 67.7473L97.137 74.1314L102.897 79.6319L99.3191 80.0065L93.9611 74.7467L94.5639 80.5043L91.5569 80.8191Z" fill="black"/>
<path d="M85.8989 80.7987C84.9514 81.5027 83.8173 81.9239 82.4964 82.0622C81.1754 82.2005 79.9786 82.0233 78.9059 81.5308C77.8331 81.0382 76.9916 80.3526 76.3811 79.4739C75.7777 78.5866 75.419 77.599 75.3051 76.5112C75.2197 75.6954 75.2895 74.8986 75.5144 74.121C75.7385 73.3355 76.0921 72.623 76.5749 71.9833C77.0578 71.3436 77.6971 70.8093 78.4927 70.3804C79.2953 69.9429 80.1938 69.6721 81.1884 69.568C82.183 69.4638 83.1142 69.5431 83.9822 69.8057C84.8572 70.0597 85.5971 70.4497 86.202 70.9755C86.8069 71.5013 87.3004 72.1252 87.6823 72.8472C88.0634 73.5614 88.2967 74.3264 88.3821 75.1422C88.496 76.23 88.3457 77.2709 87.9313 78.2647C87.5239 79.25 86.8464 80.0947 85.8989 80.7987ZM83.4545 72.4178C82.8654 72.1182 82.1979 72.0074 81.4519 72.0855C80.706 72.1635 80.072 72.4106 79.55 72.8266C79.0358 73.2417 78.6719 73.7433 78.4585 74.3312C78.2452 74.9191 78.173 75.5433 78.2422 76.2037C78.3495 77.2294 78.7639 78.0736 79.4853 78.7365C80.2067 79.3994 81.1229 79.6727 82.234 79.5563C83.3451 79.44 84.1849 78.9829 84.7534 78.185C85.3218 77.3871 85.5524 76.4754 85.445 75.4497C85.3759 74.7893 85.176 74.1935 84.8455 73.6626C84.515 73.1316 84.0513 72.7167 83.4545 72.4178Z" fill="black"/>
<path d="M64.3866 88.7064L61.3796 89.0212L59.6105 72.1213L62.5009 71.8187L62.7157 73.87C63.0342 73.1611 63.551 72.5454 64.2661 72.0228C64.9804 71.4924 65.831 71.1756 66.8177 71.0723C67.9677 70.9519 69.0347 71.1269 70.0187 71.5973C71.0019 72.06 71.7961 72.7427 72.4012 73.6456C73.0055 74.5406 73.3674 75.5593 73.487 76.7015C73.6065 77.8437 73.4634 78.9152 73.0576 79.916C72.6518 80.9168 72.0158 81.7453 71.1498 82.4016C70.2837 83.0578 69.2757 83.4461 68.1257 83.5665C67.1156 83.6722 66.2109 83.547 65.4117 83.1908C64.6194 82.826 64.0321 82.318 63.6497 81.6667L64.3866 88.7064ZM69.7454 79.7914C70.3457 78.998 70.5906 78.073 70.48 77.0162C70.3693 75.9595 69.9378 75.1013 69.1853 74.4417C68.4407 73.7813 67.5399 73.5064 66.4832 73.617C65.4653 73.7236 64.6395 74.1635 64.0056 74.9368C63.3795 75.7094 63.125 76.655 63.2422 77.7739C63.3593 78.8928 63.8037 79.7614 64.5754 80.3798C65.3549 80.9973 66.2535 81.2527 67.2714 81.1462C68.3281 81.0356 69.1528 80.584 69.7454 79.7914Z" fill="black"/>
<path d="M51.1845 81.4517C51.4766 82.5915 52.2676 83.0939 53.5574 82.9589C54.1402 82.8979 54.596 82.7127 54.925 82.4033C55.2617 82.0931 55.4052 81.7011 55.3556 81.2271C55.3166 80.8541 55.1851 80.5733 54.9611 80.3847C54.7363 80.1883 54.3912 80.0437 53.9259 79.951L52.1043 79.6586C51.002 79.4834 50.1586 79.1554 49.5741 78.6745C48.9896 78.1937 48.6489 77.491 48.5521 76.5664C48.4407 75.5019 48.7475 74.6057 49.4725 73.8778C50.2045 73.1413 51.1805 72.7092 52.4004 72.5815C53.6436 72.4514 54.6564 72.6714 55.4387 73.2414C56.2288 73.8107 56.7508 74.6319 57.0045 75.7051L54.4404 75.9735C54.3584 75.5658 54.1668 75.2363 53.8656 74.985C53.5721 74.7329 53.1806 74.6325 52.6911 74.6838C52.2249 74.7326 51.8603 74.8886 51.5972 75.1518C51.3411 75.4064 51.2337 75.7318 51.2752 76.1281C51.3118 76.4778 51.4366 76.7318 51.6496 76.8902C51.8695 77.0399 52.2203 77.1643 52.7019 77.2631L54.8854 77.6354C56.8366 77.9653 57.9012 78.9811 58.0794 80.6827C58.1591 81.4442 58.0053 82.1515 57.6181 82.8048C57.2379 83.4494 56.707 83.9685 56.0255 84.3619C55.351 84.7467 54.6096 84.9814 53.8016 85.066C52.4884 85.2035 51.3673 84.9988 50.4381 84.4519C49.5159 83.8965 48.9139 82.9855 48.632 81.7189L51.1845 81.4517Z" fill="black"/>
<path d="M37.1815 81.5155C37.3723 82.4382 37.7911 83.1366 38.4377 83.611C39.0843 84.0853 39.9244 84.2683 40.9578 84.1602C41.6726 84.0853 42.2878 83.8835 42.8032 83.5546C43.3178 83.2179 43.6976 82.7933 43.9424 82.2806L46.7396 81.9878C46.4192 83.1289 45.7602 84.113 44.7628 84.9401C43.7723 85.7586 42.5817 86.2407 41.1908 86.3863C39.2017 86.5945 37.5707 86.1722 36.298 85.1193C35.0329 84.0656 34.3048 82.6257 34.1137 80.7998C33.925 78.9971 34.3559 77.4478 35.4063 76.1517C36.4559 74.8478 37.8976 74.0999 39.7314 73.9079C41.5806 73.7143 43.1455 74.1436 44.4261 75.1956C45.7144 76.2469 46.455 77.6933 46.6478 79.5348L46.7503 80.5138L37.1815 81.5155ZM40.0154 76.058C39.0752 76.1564 38.3352 76.5167 37.7955 77.1387C37.2627 77.7522 36.9811 78.5515 36.9507 79.5366L43.6757 78.8326C43.484 77.9022 43.0632 77.1843 42.4133 76.6789C41.7626 76.1657 40.9633 75.9588 40.0154 76.058Z" fill="black"/>
<path d="M28.5564 84.1033C29.1567 83.3099 29.4016 82.3849 29.291 81.3282C29.1803 80.2714 28.7488 79.4133 27.9964 78.7537C27.2517 78.0932 26.351 77.8183 25.2942 77.9289C24.2764 78.0355 23.4505 78.4754 22.8166 79.2488C22.1905 80.0213 21.936 80.967 22.0532 82.0859C22.1703 83.2047 22.6147 84.0733 23.3864 84.6917C24.1659 85.3092 25.0646 85.5647 26.0824 85.4581C27.1392 85.3475 27.9638 84.8959 28.5564 84.1033ZM20.8514 70.6056L21.6432 78.1698C21.8833 77.4612 22.3569 76.8461 23.0643 76.3243C23.7716 75.8025 24.6264 75.4891 25.6288 75.3842C26.7787 75.2638 27.8457 75.4388 28.8297 75.9092C29.8129 76.3719 30.6071 77.0546 31.2122 77.9575C31.8165 78.8525 32.1784 79.8712 32.298 81.0134C32.4175 82.1556 32.2744 83.2271 31.8686 84.2279C31.4628 85.2287 30.8268 86.0572 29.9608 86.7135C29.0947 87.3697 28.0867 87.758 26.9367 87.8784C25.9499 87.9817 25.0526 87.8518 24.2448 87.4886C23.4361 87.1176 22.8026 86.6184 22.3441 85.9908L22.5589 88.0421L19.6684 88.3447L17.8444 70.9204L20.8514 70.6056Z" fill="black"/>
<rect x="321.237" y="173.226" width="226.959" height="36" rx="18" transform="rotate(5.68544 321.237 173.226)" fill="#D9D9D9"/>
<path d="M516.075 219.38L513.067 219.08L514.253 207.163L517.168 207.453L516.966 209.482C517.309 208.802 517.859 208.287 518.616 207.938C519.373 207.59 520.222 207.462 521.162 207.556C522.569 207.696 523.619 208.272 524.311 209.283C525.004 210.294 525.274 211.557 525.123 213.073L524.413 220.21L521.404 219.91L522.065 213.275C522.154 212.381 522.015 211.649 521.648 211.078C521.281 210.5 520.667 210.168 519.804 210.082C518.98 210 518.284 210.206 517.717 210.699C517.15 211.192 516.823 211.866 516.738 212.721L516.075 219.38Z" fill="black"/>
<path d="M501.42 212.927C501.42 213.87 501.689 214.638 502.227 215.234C502.764 215.829 503.55 216.178 504.584 216.281C505.299 216.352 505.942 216.279 506.513 216.061C507.085 215.835 507.543 215.496 507.887 215.043L510.685 215.322C510.141 216.375 509.296 217.205 508.152 217.814C507.017 218.415 505.753 218.647 504.362 218.508C502.372 218.31 500.86 217.567 499.826 216.278C498.8 214.991 498.378 213.433 498.56 211.606C498.74 209.803 499.475 208.372 500.766 207.315C502.057 206.251 503.62 205.81 505.455 205.992C507.305 206.176 508.751 206.913 509.792 208.202C510.842 209.492 511.275 211.059 511.091 212.901L510.994 213.881L501.42 212.927ZM505.298 208.155C504.358 208.062 503.56 208.265 502.906 208.765C502.26 209.258 501.823 209.984 501.594 210.943L508.322 211.613C508.323 210.663 508.056 209.874 507.521 209.248C506.988 208.614 506.247 208.25 505.298 208.155Z" fill="black"/>
<path d="M485.812 204.331L488.902 204.639L491.253 213.434L495.304 205.276L498.382 205.583L492.252 217.008L489.57 216.741L485.812 204.331Z" fill="black"/>
<path d="M479.634 215.752L480.821 203.834L483.829 204.134L482.643 216.051L479.634 215.752ZM480.906 200.027C480.954 199.537 481.167 199.138 481.543 198.83C481.919 198.522 482.364 198.394 482.877 198.445C483.382 198.495 483.789 198.708 484.097 199.085C484.405 199.453 484.535 199.886 484.485 200.383C484.434 200.896 484.221 201.303 483.846 201.603C483.478 201.904 483.038 202.029 482.525 201.978C482.012 201.927 481.601 201.717 481.292 201.349C480.983 200.981 480.854 200.54 480.906 200.027Z" fill="black"/>
<path d="M478.42 206.422L477.767 206.356C476.577 206.238 475.659 206.472 475.012 207.06C474.365 207.647 473.98 208.551 473.859 209.771L473.326 215.124L470.317 214.824L471.504 202.907L474.419 203.197L474.167 205.727C474.475 204.839 475.04 204.209 475.863 203.835C476.685 203.462 477.637 203.329 478.717 203.436L478.42 206.422Z" fill="black"/>
<path d="M465.744 196.763L468.753 197.062L467.017 214.496L464.137 214.209L464.341 212.157C463.894 212.787 463.263 213.29 462.448 213.664C461.634 214.03 460.738 214.165 459.758 214.067C458.608 213.953 457.598 213.57 456.728 212.918C455.859 212.266 455.219 211.441 454.808 210.442C454.397 209.443 454.248 208.373 454.362 207.23C454.476 206.087 454.833 205.066 455.432 204.168C456.033 203.262 456.824 202.576 457.804 202.108C458.786 201.633 459.852 201.452 461.003 201.567C462.005 201.667 462.858 201.975 463.56 202.493C464.262 203.01 464.739 203.623 464.991 204.331L465.744 196.763ZM458.641 204.947C457.899 205.611 457.476 206.472 457.371 207.529C457.265 208.587 457.507 209.51 458.096 210.298C458.693 211.088 459.52 211.535 460.577 211.641C461.611 211.743 462.512 211.484 463.281 210.862C464.049 210.239 464.489 209.368 464.601 208.249C464.712 207.13 464.449 206.185 463.811 205.415C463.181 204.645 462.353 204.21 461.327 204.107C460.277 204.003 459.382 204.283 458.641 204.947Z" fill="black"/>
<path d="M444.926 203.947L452.331 204.684L452.066 207.343L444.661 206.605L444.926 203.947Z" fill="black"/>
<path d="M432.526 206.069C432.526 207.011 432.795 207.779 433.333 208.375C433.87 208.97 434.656 209.319 435.69 209.422C436.405 209.493 437.048 209.42 437.619 209.202C438.191 208.976 438.649 208.637 438.993 208.184L441.791 208.463C441.247 209.516 440.403 210.346 439.259 210.955C438.123 211.556 436.86 211.788 435.468 211.649C433.478 211.451 431.966 210.708 430.932 209.419C429.906 208.132 429.484 206.574 429.666 204.747C429.846 202.944 430.581 201.514 431.872 200.457C433.163 199.392 434.726 198.951 436.561 199.133C438.411 199.318 439.857 200.054 440.898 201.343C441.948 202.633 442.381 204.2 442.197 206.042L442.1 207.022L432.526 206.069ZM436.404 201.296C435.464 201.203 434.666 201.406 434.012 201.906C433.366 202.399 432.929 203.125 432.7 204.084L439.428 204.754C439.429 203.804 439.162 203.016 438.627 202.389C438.094 201.755 437.353 201.391 436.404 201.296Z" fill="black"/>
<path d="M410.379 208.857L407.37 208.557L408.557 196.64L411.472 196.93L411.27 198.959C411.621 198.272 412.159 197.756 412.884 197.412C413.61 197.06 414.44 196.931 415.373 197.024C417.192 197.205 418.382 198.105 418.943 199.723C420.053 198.271 421.569 197.641 423.489 197.832C424.888 197.971 425.915 198.541 426.569 199.54C427.231 200.54 427.486 201.806 427.333 203.338L426.623 210.474L423.614 210.175L424.275 203.539C424.47 201.58 423.755 200.52 422.13 200.358C421.322 200.278 420.647 200.474 420.105 200.946C419.572 201.411 419.264 202.055 419.182 202.879L418.507 209.666L415.498 209.367L416.159 202.731C416.354 200.772 415.639 199.712 414.014 199.55C413.198 199.469 412.518 199.676 411.974 200.171C411.438 200.66 411.128 201.336 411.042 202.198L410.379 208.857Z" fill="black"/>
<path d="M401.833 207.394C400.763 207.892 399.567 208.075 398.246 207.943C396.924 207.812 395.788 207.397 394.837 206.697C393.886 205.998 393.2 205.156 392.78 204.173C392.368 203.182 392.217 202.142 392.325 201.054C392.406 200.237 392.636 199.471 393.013 198.755C393.391 198.031 393.882 197.405 394.484 196.876C395.086 196.347 395.82 195.953 396.686 195.694C397.56 195.427 398.495 195.344 399.49 195.443C400.485 195.542 401.381 195.808 402.178 196.24C402.984 196.666 403.63 197.197 404.116 197.835C404.602 198.472 404.959 199.183 405.187 199.967C405.416 200.743 405.49 201.54 405.409 202.356C405.3 203.444 404.943 204.433 404.336 205.323C403.738 206.206 402.904 206.896 401.833 207.394ZM401.133 198.692C400.617 198.279 399.986 198.036 399.239 197.962C398.493 197.887 397.822 198.001 397.227 198.303C396.639 198.606 396.182 199.023 395.854 199.556C395.526 200.089 395.329 200.685 395.264 201.346C395.161 202.372 395.397 203.283 395.969 204.078C396.542 204.873 397.384 205.326 398.495 205.436C399.607 205.547 400.522 205.269 401.24 204.603C401.958 203.936 402.368 203.09 402.47 202.064C402.536 201.403 402.461 200.779 402.244 200.192C402.028 199.605 401.658 199.105 401.133 198.692Z" fill="black"/>
<path d="M384.984 193.999C386.554 194.155 387.848 194.723 388.865 195.704C389.891 196.678 390.506 197.83 390.712 199.162L387.808 198.873C387.336 197.46 386.303 196.674 384.71 196.515C383.614 196.406 382.715 196.682 382.013 197.342C381.311 198.002 380.908 198.857 380.804 199.907C380.699 200.956 380.926 201.874 381.484 202.659C382.042 203.437 382.87 203.881 383.966 203.99C385.567 204.149 386.735 203.579 387.469 202.278L390.373 202.567C389.909 203.832 389.078 204.844 387.88 205.604C386.69 206.357 385.31 206.656 383.739 206.499C382.457 206.372 381.341 205.982 380.393 205.33C379.446 204.678 378.75 203.855 378.307 202.861C377.865 201.859 377.702 200.775 377.819 199.609C377.997 197.821 378.751 196.393 380.082 195.324C381.414 194.248 383.048 193.806 384.984 193.999Z" fill="black"/>
<path d="M371.106 189.319L374.114 189.619L373.76 193.176L376.839 193.482L376.591 195.966L373.513 195.659L372.973 201.082C372.911 201.704 372.994 202.171 373.222 202.485C373.458 202.798 373.863 202.984 374.439 203.041C374.796 203.077 375.243 203.047 375.778 202.951L375.538 205.365C375.335 205.431 375.025 205.475 374.606 205.496C374.188 205.517 373.789 205.509 373.408 205.471C372.047 205.335 371.098 204.856 370.559 204.033C370.029 203.211 369.835 202.081 369.978 200.642L370.504 195.36L368.289 195.139L368.536 192.656L370.752 192.876L371.106 189.319Z" fill="black"/>
<path d="M363.58 192.162L366.589 192.462L365.402 204.379L362.51 204.091L362.71 202.086C362.337 202.755 361.78 203.265 361.038 203.615C360.298 203.957 359.465 204.083 358.54 203.99C357.14 203.851 356.098 203.284 355.412 202.289C354.734 201.288 354.471 200.025 354.623 198.501L355.336 191.341L358.344 191.641L357.679 198.323C357.484 200.282 358.222 201.344 359.894 201.511C360.741 201.595 361.432 201.397 361.967 200.916C362.51 200.429 362.825 199.75 362.911 198.879L363.58 192.162Z" fill="black"/>
<path d="M348.729 202.107C347.659 202.605 346.463 202.788 345.141 202.657C343.82 202.525 342.683 202.11 341.732 201.41C340.781 200.711 340.096 199.87 339.675 198.886C339.264 197.895 339.112 196.855 339.22 195.767C339.302 194.95 339.531 194.184 339.908 193.468C340.287 192.744 340.777 192.118 341.379 191.589C341.981 191.06 342.715 190.666 343.581 190.407C344.456 190.14 345.391 190.057 346.386 190.156C347.381 190.255 348.277 190.521 349.074 190.953C349.879 191.379 350.525 191.91 351.011 192.548C351.497 193.185 351.855 193.896 352.083 194.68C352.312 195.456 352.385 196.253 352.304 197.069C352.196 198.157 351.838 199.146 351.231 200.036C350.633 200.919 349.799 201.609 348.729 202.107ZM348.029 193.405C347.513 192.992 346.881 192.749 346.135 192.675C345.389 192.6 344.718 192.714 344.122 193.016C343.535 193.319 343.077 193.736 342.749 194.269C342.422 194.802 342.225 195.398 342.159 196.059C342.057 197.085 342.292 197.996 342.864 198.791C343.437 199.586 344.279 200.039 345.391 200.149C346.502 200.26 347.417 199.982 348.135 199.316C348.853 198.649 349.263 197.803 349.365 196.777C349.431 196.116 349.356 195.492 349.14 194.905C348.923 194.318 348.553 193.818 348.029 193.405Z" fill="black"/>
<rect x="93" y="173.899" width="271.163" height="36" rx="18" transform="rotate(-6.25822 93 173.899)" fill="#0033FF"/>
<path d="M325.613 157.155L328.618 156.825L329.008 160.378L332.083 160.041L332.356 162.522L329.28 162.859L329.874 168.276C329.942 168.897 330.12 169.337 330.408 169.597C330.704 169.855 331.139 169.953 331.713 169.89C332.071 169.851 332.501 169.729 333.006 169.524L333.27 171.935C333.085 172.042 332.79 172.149 332.386 172.256C331.981 172.364 331.588 172.438 331.208 172.48C329.849 172.629 328.821 172.357 328.124 171.663C327.434 170.968 327.011 169.902 326.853 168.466L326.275 163.189L324.062 163.431L323.789 160.95L326.003 160.708L325.613 157.155Z" fill="white"/>
<path d="M316.395 161.466C317.964 161.294 319.348 161.583 320.546 162.332C321.751 163.072 322.591 164.072 323.068 165.332L320.167 165.65C319.413 164.366 318.24 163.81 316.648 163.985C315.553 164.105 314.731 164.561 314.181 165.352C313.631 166.143 313.413 167.063 313.528 168.111C313.643 169.16 314.055 170.011 314.763 170.664C315.471 171.309 316.372 171.572 317.467 171.452C319.067 171.277 320.091 170.477 320.54 169.052L323.441 168.734C323.249 170.067 322.645 171.23 321.63 172.221C320.622 173.204 319.334 173.782 317.765 173.954C316.483 174.094 315.312 173.944 314.249 173.502C313.187 173.061 312.336 172.4 311.698 171.519C311.058 170.63 310.674 169.603 310.546 168.438C310.35 166.652 310.793 165.099 311.874 163.778C312.955 162.449 314.462 161.678 316.395 161.466Z" fill="white"/>
<path d="M307.33 162.755L308.635 174.661L305.758 174.976L305.533 172.926C305.226 173.635 304.712 174.258 303.993 174.792C303.273 175.319 302.423 175.636 301.445 175.744C300.295 175.87 299.228 175.704 298.242 175.246C297.257 174.788 296.46 174.113 295.851 173.221C295.243 172.329 294.876 171.312 294.75 170.171C294.625 169.029 294.763 167.957 295.164 166.954C295.564 165.944 296.195 165.108 297.058 164.448C297.92 163.779 298.926 163.382 300.075 163.256C301.085 163.145 301.999 163.273 302.817 163.639C303.642 163.997 304.247 164.492 304.631 165.126L304.406 163.076L307.33 162.755ZM298.464 167.052C297.876 167.855 297.64 168.785 297.756 169.841C297.872 170.897 298.299 171.75 299.039 172.4C299.786 173.049 300.687 173.316 301.743 173.2C302.776 173.087 303.604 172.646 304.227 171.878C304.851 171.11 305.101 170.167 304.978 169.049C304.856 167.931 304.403 167.061 303.619 166.44C302.844 165.817 301.943 165.562 300.918 165.675C299.87 165.79 299.052 166.249 298.464 167.052Z" fill="white"/>
<path d="M283.892 182.42L280.887 182.749L279.034 165.858L281.923 165.541L282.148 167.592C282.463 166.881 282.977 166.263 283.69 165.737C284.401 165.203 285.25 164.882 286.236 164.774C287.386 164.648 288.454 164.817 289.44 165.283C290.425 165.741 291.223 166.42 291.832 167.319C292.441 168.212 292.808 169.228 292.933 170.37C293.058 171.512 292.921 172.584 292.52 173.587C292.119 174.589 291.487 175.421 290.624 176.082C289.761 176.742 288.755 177.135 287.606 177.261C286.596 177.372 285.691 177.251 284.89 176.899C284.096 176.538 283.506 176.033 283.121 175.384L283.892 182.42ZM289.207 173.478C289.803 172.682 290.044 171.756 289.928 170.7C289.812 169.643 289.376 168.787 288.621 168.131C287.873 167.475 286.971 167.204 285.914 167.32C284.897 167.432 284.073 167.876 283.443 168.652C282.821 169.428 282.571 170.375 282.694 171.493C282.816 172.611 283.265 173.478 284.04 174.092C284.822 174.706 285.722 174.957 286.74 174.845C287.796 174.729 288.618 174.274 289.207 173.478Z" fill="white"/>
<path d="M260.933 179.892L257.927 180.221L256.622 168.316L259.534 167.997L259.756 170.024C259.958 169.278 260.377 168.663 261.016 168.176C261.653 167.682 262.438 167.383 263.37 167.281C265.187 167.082 266.537 167.716 267.421 169.183C268.207 167.533 269.559 166.603 271.477 166.392C272.875 166.239 273.997 166.583 274.844 167.426C275.699 168.267 276.21 169.453 276.378 170.983L277.16 178.112L274.154 178.442L273.427 171.813C273.213 169.856 272.294 168.967 270.671 169.145C269.863 169.233 269.243 169.565 268.811 170.139C268.386 170.704 268.218 171.398 268.309 172.222L269.052 179.001L266.047 179.331L265.32 172.703C265.105 170.746 264.186 169.856 262.563 170.034C261.748 170.123 261.125 170.467 260.696 171.064C260.273 171.653 260.109 172.378 260.203 173.24L260.933 179.892Z" fill="white"/>
<path d="M251.532 180.922L250.227 169.017L253.232 168.688L254.537 180.593L251.532 180.922ZM249.521 165.275C249.468 164.786 249.593 164.352 249.897 163.972C250.201 163.593 250.61 163.375 251.122 163.319C251.627 163.264 252.069 163.388 252.448 163.693C252.827 163.989 253.043 164.386 253.098 164.883C253.154 165.395 253.029 165.837 252.724 166.209C252.427 166.579 252.022 166.793 251.509 166.849C250.997 166.905 250.552 166.785 250.173 166.489C249.795 166.192 249.578 165.788 249.521 165.275Z" fill="white"/>
<path d="M233.028 177.953C233.223 178.875 233.645 179.571 234.294 180.042C234.943 180.514 235.784 180.692 236.817 180.579C237.532 180.501 238.146 180.296 238.66 179.965C239.173 179.625 239.55 179.199 239.792 178.685L242.588 178.378C242.273 179.521 241.619 180.508 240.626 181.34C239.64 182.164 238.451 182.652 237.061 182.804C235.073 183.022 233.44 182.608 232.162 181.561C230.892 180.514 230.157 179.078 229.957 177.253C229.759 175.451 230.182 173.899 231.226 172.598C232.27 171.289 233.708 170.534 235.54 170.333C237.389 170.13 238.956 170.552 240.241 171.598C241.535 172.643 242.282 174.085 242.484 175.926L242.592 176.904L233.028 177.953ZM235.835 172.482C234.895 172.585 234.157 172.949 233.62 173.573C233.091 174.19 232.813 174.99 232.787 175.975L239.509 175.238C239.313 174.309 238.888 173.593 238.236 173.091C237.583 172.581 236.782 172.378 235.835 172.482Z" fill="white"/>
<path d="M221.262 168.598L224.268 168.268L224.657 171.821L227.732 171.484L228.005 173.965L224.929 174.303L225.523 179.719C225.591 180.341 225.769 180.781 226.057 181.04C226.353 181.298 226.788 181.396 227.363 181.333C227.72 181.294 228.15 181.172 228.655 180.967L228.919 183.379C228.734 183.485 228.439 183.592 228.035 183.7C227.63 183.807 227.237 183.881 226.857 183.923C225.498 184.072 224.47 183.8 223.773 183.106C223.083 182.411 222.66 181.346 222.503 179.909L221.924 174.632L219.711 174.875L219.438 172.394L221.652 172.151L221.262 168.598Z" fill="white"/>
<path d="M217.47 172.61L218.775 184.515L215.898 184.83L215.673 182.78C215.366 183.49 214.853 184.112 214.133 184.647C213.413 185.174 212.563 185.491 211.585 185.598C210.436 185.724 209.368 185.558 208.383 185.1C207.397 184.643 206.6 183.968 205.992 183.076C205.383 182.183 205.016 181.167 204.891 180.025C204.766 178.883 204.903 177.811 205.304 176.808C205.704 175.798 206.336 174.962 207.199 174.302C208.061 173.634 209.066 173.236 210.216 173.11C211.225 173 212.139 173.127 212.957 173.493C213.782 173.851 214.387 174.347 214.771 174.98L214.546 172.93L217.47 172.61ZM208.604 176.906C208.016 177.71 207.78 178.639 207.896 179.695C208.012 180.752 208.44 181.605 209.179 182.254C209.926 182.903 210.828 183.17 211.884 183.054C212.917 182.941 213.745 182.5 214.368 181.733C214.991 180.965 215.241 180.022 215.118 178.903C214.996 177.785 214.543 176.915 213.759 176.294C212.984 175.672 212.084 175.417 211.058 175.529C210.01 175.644 209.192 176.103 208.604 176.906Z" fill="white"/>
<path d="M193.608 182.276C193.803 183.198 194.226 183.894 194.874 184.365C195.523 184.837 196.364 185.015 197.397 184.902C198.112 184.824 198.726 184.619 199.24 184.288C199.753 183.948 200.13 183.522 200.373 183.008L203.168 182.701C202.853 183.844 202.199 184.831 201.206 185.663C200.22 186.487 199.031 186.975 197.641 187.127C195.653 187.345 194.02 186.931 192.742 185.884C191.472 184.837 190.737 183.401 190.537 181.576C190.339 179.774 190.762 178.222 191.806 176.921C192.85 175.612 194.288 174.857 196.12 174.656C197.969 174.453 199.536 174.875 200.821 175.921C202.115 176.966 202.863 178.408 203.064 180.249L203.172 181.227L193.608 182.276ZM196.415 176.805C195.475 176.908 194.737 177.272 194.2 177.896C193.671 178.513 193.393 179.313 193.367 180.298L200.089 179.561C199.893 178.632 199.468 177.916 198.816 177.414C198.163 176.904 197.362 176.701 196.415 176.805Z" fill="white"/>
<path d="M189.097 178.55L188.444 178.622C187.256 178.752 186.406 179.172 185.895 179.88C185.383 180.588 185.194 181.552 185.327 182.772L185.914 188.118L182.908 188.448L181.603 176.543L184.515 176.223L184.792 178.751C184.91 177.819 185.333 177.085 186.06 176.549C186.787 176.014 187.69 175.687 188.77 175.568L189.097 178.55Z" fill="white"/>
<path d="M172.881 177.205C174.449 177.033 175.833 177.321 177.031 178.07C178.236 178.81 179.077 179.81 179.553 181.071L176.652 181.389C175.898 180.104 174.725 179.549 173.133 179.723C172.038 179.843 171.216 180.299 170.666 181.09C170.116 181.881 169.899 182.801 170.014 183.85C170.129 184.898 170.54 185.749 171.249 186.402C171.956 187.048 172.857 187.31 173.952 187.19C175.552 187.015 176.576 186.215 177.025 184.79L179.926 184.472C179.734 185.806 179.131 186.968 178.116 187.96C177.107 188.943 175.819 189.52 174.25 189.692C172.969 189.833 171.797 189.682 170.735 189.241C169.672 188.799 168.822 188.138 168.183 187.257C167.543 186.368 167.159 185.342 167.032 184.177C166.836 182.391 167.278 180.837 168.36 179.516C169.44 178.187 170.947 177.417 172.881 177.205Z" fill="white"/>
<path d="M150.018 187.056C150.213 187.978 150.635 188.674 151.284 189.146C151.933 189.617 152.774 189.796 153.807 189.682C154.522 189.604 155.136 189.399 155.649 189.068C156.162 188.729 156.54 188.302 156.782 187.788L159.578 187.482C159.263 188.624 158.609 189.612 157.616 190.444C156.629 191.267 155.441 191.755 154.051 191.907C152.063 192.125 150.43 191.711 149.152 190.664C147.882 189.617 147.147 188.181 146.946 186.356C146.749 184.554 147.172 183.003 148.216 181.701C149.259 180.392 150.697 179.637 152.53 179.436C154.378 179.234 155.945 179.655 157.231 180.701C158.525 181.746 159.272 183.189 159.474 185.029L159.581 186.008L150.018 187.056ZM152.825 181.585C151.885 181.688 151.147 182.052 150.61 182.677C150.08 183.293 149.803 184.093 149.777 185.079L156.499 184.341C156.302 183.412 155.878 182.696 155.226 182.194C154.573 181.684 153.772 181.481 152.825 181.585Z" fill="white"/>
<path d="M140.928 189.315L142.323 180.85L145.235 180.531L142.72 192.855L140.285 193.122L136.071 185.014L133.703 193.844L131.269 194.111L126.142 182.625L129.055 182.305L132.25 190.266L134.518 181.706L136.859 181.449L140.928 189.315Z" fill="white"/>
<path d="M1103.57 149.707C1103.57 146.519 1104.6 143.871 1106.66 141.761C1108.73 139.652 1111.42 138.597 1114.75 138.597C1118.08 138.597 1120.77 139.652 1122.84 141.761C1124.95 143.871 1126 146.519 1126 149.707C1126 152.847 1124.95 155.449 1122.84 157.511C1120.77 159.574 1118.08 160.605 1114.75 160.605C1111.42 160.605 1108.73 159.574 1106.66 157.511C1104.6 155.449 1103.57 152.847 1103.57 149.707Z" fill="black"/>
<path d="M1054.77 66.0349H1072.91V87.4802H1091.48V102.457H1072.91V135.152C1072.91 138.902 1073.69 141.644 1075.23 143.379C1076.83 145.113 1079.36 145.98 1082.83 145.98C1084.98 145.98 1087.63 145.535 1090.77 144.644V159.199C1089.6 159.715 1087.77 160.16 1085.29 160.535C1082.8 160.91 1080.41 161.097 1078.12 161.097C1069.91 161.097 1063.96 158.801 1060.26 154.207C1056.6 149.613 1054.77 142.98 1054.77 134.308V102.457H1041.41V87.4802H1054.77V66.0349Z" fill="black"/>
<path d="M1010.83 159.34V87.4802H1028.97V159.34H1010.83ZM1009.07 64.699C1009.07 61.7458 1010.1 59.238 1012.16 57.1755C1014.23 55.113 1016.8 54.0818 1019.9 54.0818C1022.95 54.0818 1025.5 55.113 1027.56 57.1755C1029.62 59.1912 1030.66 61.699 1030.66 64.699C1030.66 67.7927 1029.62 70.3474 1027.56 72.363C1025.55 74.3787 1022.99 75.3865 1019.9 75.3865C1016.8 75.3865 1014.23 74.3787 1012.16 72.363C1010.1 70.3474 1009.07 67.7927 1009.07 64.699Z" fill="black"/>
<path d="M990.297 87.4802V159.34H972.93V146.965C970.633 150.996 967.164 154.371 962.523 157.09C957.883 159.761 952.609 161.097 946.703 161.097C939.766 161.097 933.508 159.41 927.93 156.035C922.352 152.66 918.039 148.113 914.992 142.394C911.945 136.676 910.422 130.371 910.422 123.48C910.422 116.59 911.945 110.285 914.992 104.566C918.039 98.8005 922.352 94.2302 927.93 90.8552C933.508 87.4333 939.766 85.7224 946.703 85.7224C952.797 85.7224 958.164 87.0818 962.805 89.8005C967.492 92.4724 970.773 95.824 972.648 99.8552V87.4802H990.297ZM934.609 107.308C930.578 111.715 928.562 117.105 928.562 123.48C928.562 129.855 930.555 135.222 934.539 139.582C938.57 143.941 943.773 146.121 950.148 146.121C956.383 146.121 961.609 144.035 965.828 139.863C970.047 135.691 972.156 130.23 972.156 123.48C972.156 116.73 970.023 111.246 965.758 107.027C961.539 102.808 956.336 100.699 950.148 100.699C943.82 100.699 938.641 102.902 934.609 107.308Z" fill="black"/>
<path d="M872.594 137.051L886.445 87.4802H904.023L880.961 159.34H866.266L846.438 108.222L826.539 159.34H811.844L788.781 87.4802H806.359L820.211 137.051L839.336 87.4802H853.469L872.594 137.051Z" fill="black"/>
<path d="M689.781 129.527C690.344 135.152 692.406 139.582 695.969 142.816C699.531 146.051 704.43 147.668 710.664 147.668C714.977 147.668 718.773 146.847 722.055 145.207C725.336 143.519 727.867 141.222 729.648 138.316H746.523C743.898 144.926 739.352 150.386 732.883 154.699C726.461 158.965 719.055 161.097 710.664 161.097C698.664 161.097 689.195 157.558 682.258 150.48C675.367 143.402 671.922 134.355 671.922 123.34C671.922 112.465 675.461 103.488 682.539 96.4099C689.617 89.2849 698.688 85.7224 709.75 85.7224C720.906 85.7224 729.977 89.2615 736.961 96.3396C743.992 103.418 747.508 112.511 747.508 123.621V129.527H689.781ZM710.102 98.7302C704.43 98.7302 699.789 100.418 696.18 103.793C692.617 107.121 690.438 111.715 689.641 117.574H730.211C729.648 111.902 727.586 107.355 724.023 103.933C720.461 100.465 715.82 98.7302 710.102 98.7302Z" fill="black"/>
<path d="M606.883 159.34H588.742V54.2224H606.883V99.1521C608.805 94.8396 611.781 91.5349 615.812 89.238C619.844 86.8943 624.648 85.7224 630.227 85.7224C638.711 85.7224 645.32 88.5349 650.055 94.1599C654.789 99.7849 657.156 107.168 657.156 116.308V159.34H639.016V119.332C639.016 113.941 637.75 109.652 635.219 106.465C632.688 103.23 628.82 101.613 623.617 101.613C618.695 101.613 614.664 103.23 611.523 106.465C608.43 109.699 606.883 113.941 606.883 119.191V159.34Z" fill="black"/>
<path d="M538.117 66.0349H556.258V87.4802H574.82V102.457H556.258V135.152C556.258 138.902 557.031 141.644 558.578 143.379C560.172 145.113 562.703 145.98 566.172 145.98C568.328 145.98 570.977 145.535 574.117 144.644V159.199C572.945 159.715 571.117 160.16 568.633 160.535C566.148 160.91 563.758 161.097 561.461 161.097C553.258 161.097 547.305 158.801 543.602 154.207C539.945 149.613 538.117 142.98 538.117 134.308V102.457H524.758V87.4802H538.117V66.0349Z" fill="black"/>
<path d="M428.711 159.34H410.57V54.2224H428.711V99.1521C430.633 94.8396 433.609 91.5349 437.641 89.238C441.672 86.8943 446.477 85.7224 452.055 85.7224C460.539 85.7224 467.148 88.5349 471.883 94.1599C476.617 99.7849 478.984 107.168 478.984 116.308V159.34H460.844V119.332C460.844 113.941 459.578 109.652 457.047 106.465C454.516 103.23 450.648 101.613 445.445 101.613C440.523 101.613 436.492 103.23 433.352 106.465C430.258 109.699 428.711 113.941 428.711 119.191V159.34Z" fill="black"/>
<path d="M359.945 66.0349H378.086V87.4802H396.648V102.457H378.086V135.152C378.086 138.902 378.859 141.644 380.406 143.379C382 145.113 384.531 145.98 388 145.98C390.156 145.98 392.805 145.535 395.945 144.644V159.199C394.773 159.715 392.945 160.16 390.461 160.535C387.977 160.91 385.586 161.097 383.289 161.097C375.086 161.097 369.133 158.801 365.43 154.207C361.773 149.613 359.945 142.98 359.945 134.308V102.457H346.586V87.4802H359.945V66.0349Z" fill="black"/>
<path d="M342.438 104.355H338.5C331.328 104.355 325.984 106.301 322.469 110.191C318.953 114.082 317.195 119.707 317.195 127.066V159.34H299.055V87.4802H316.633V102.738C317.945 97.2537 320.945 93.1521 325.633 90.4333C330.32 87.7146 335.922 86.3552 342.438 86.3552V104.355Z" fill="black"/>
<path d="M265.305 155.683C259.211 159.293 252.18 161.097 244.211 161.097C236.242 161.097 229.211 159.293 223.117 155.683C217.023 152.074 212.43 147.457 209.336 141.832C206.289 136.16 204.766 130.043 204.766 123.48C204.766 118.558 205.68 113.847 207.508 109.347C209.336 104.801 211.891 100.769 215.172 97.2537C218.453 93.738 222.602 90.949 227.617 88.8865C232.68 86.7771 238.211 85.7224 244.211 85.7224C250.211 85.7224 255.719 86.7771 260.734 88.8865C265.797 90.949 269.969 93.738 273.25 97.2537C276.531 100.769 279.086 104.801 280.914 109.347C282.742 113.847 283.656 118.558 283.656 123.48C283.656 130.043 282.109 136.16 279.016 141.832C275.969 147.457 271.398 152.074 265.305 155.683ZM255.953 104.144C252.625 101.988 248.711 100.91 244.211 100.91C239.711 100.91 235.773 101.988 232.398 104.144C229.07 106.301 226.586 109.066 224.945 112.441C223.305 115.816 222.484 119.496 222.484 123.48C222.484 129.668 224.43 134.965 228.32 139.371C232.211 143.777 237.508 145.98 244.211 145.98C250.914 145.98 256.211 143.777 260.102 139.371C263.992 134.965 265.938 129.668 265.938 123.48C265.938 119.496 265.117 115.816 263.477 112.441C261.836 109.066 259.328 106.301 255.953 104.144Z" fill="black"/>
<path d="M166.938 137.051L180.789 87.4802H198.367L175.305 159.34H160.609L140.781 108.222L120.883 159.34H106.188L83.125 87.4802H100.703L114.555 137.051L133.68 87.4802H147.812L166.938 137.051Z" fill="black"/>
<rect x="580.18" y="143.339" width="329.654" height="36" rx="18" transform="rotate(6.66751 580.18 143.339)" fill="#FF8000"/>
<path d="M888.032 194.393L887.381 194.317C886.193 194.178 885.271 194.397 884.614 194.973C883.957 195.549 883.557 196.446 883.414 197.664L882.79 203.007L879.787 202.656L881.177 190.76L884.087 191.1L883.792 193.626C884.115 192.744 884.691 192.123 885.52 191.764C886.349 191.404 887.302 191.288 888.381 191.414L888.032 194.393Z" fill="white"/>
<path d="M868.247 196.304C868.231 197.246 868.487 198.02 869.014 198.624C869.541 199.228 870.321 199.591 871.353 199.712C872.067 199.795 872.711 199.733 873.286 199.525C873.862 199.309 874.325 198.977 874.676 198.531L877.47 198.857C876.907 199.901 876.049 200.717 874.895 201.305C873.749 201.887 872.482 202.097 871.093 201.935C869.106 201.702 867.608 200.933 866.596 199.627C865.592 198.322 865.197 196.758 865.41 194.935C865.621 193.134 866.38 191.717 867.689 190.682C868.999 189.64 870.569 189.225 872.4 189.439C874.247 189.655 875.68 190.417 876.699 191.724C877.726 193.031 878.132 194.605 877.917 196.444L877.803 197.421L868.247 196.304ZM872.207 191.6C871.268 191.49 870.467 191.679 869.804 192.168C869.15 192.65 868.7 193.368 868.455 194.323L875.171 195.108C875.188 194.158 874.934 193.366 874.411 192.73C873.888 192.087 873.153 191.71 872.207 191.6Z" fill="white"/>
<path d="M859.057 200.233L860.447 188.337L863.45 188.688L862.06 200.584L859.057 200.233ZM860.597 184.532C860.654 184.043 860.874 183.648 861.255 183.346C861.636 183.045 862.083 182.924 862.595 182.984C863.1 183.043 863.503 183.263 863.804 183.644C864.106 184.018 864.229 184.453 864.171 184.95C864.111 185.462 863.891 185.865 863.51 186.158C863.137 186.453 862.695 186.57 862.183 186.511C861.671 186.451 861.264 186.234 860.961 185.86C860.659 185.487 860.537 185.044 860.597 184.532Z" fill="white"/>
<path d="M852.667 199.486L854.701 182.085L857.704 182.436L855.67 199.837L852.667 199.486Z" fill="white"/>
<path d="M841.127 193.134C841.111 194.076 841.367 194.849 841.894 195.454C842.421 196.058 843.201 196.421 844.233 196.541C844.947 196.625 845.591 196.562 846.166 196.354C846.742 196.138 847.205 195.807 847.556 195.361L850.35 195.687C849.787 196.73 848.929 197.546 847.775 198.135C846.629 198.717 845.362 198.927 843.973 198.764C841.986 198.532 840.487 197.763 839.476 196.457C838.472 195.152 838.077 193.588 838.29 191.764C838.501 189.964 839.26 188.547 840.569 187.512C841.878 186.469 843.449 186.055 845.28 186.269C847.127 186.485 848.56 187.246 849.579 188.553C850.606 189.861 851.012 191.434 850.797 193.273L850.683 194.251L841.127 193.134ZM845.087 188.429C844.148 188.319 843.347 188.509 842.684 188.998C842.03 189.48 841.58 190.198 841.335 191.153L848.051 191.938C848.067 190.988 847.814 190.195 847.291 189.56C846.768 188.917 846.033 188.54 845.087 188.429Z" fill="white"/>
<path d="M831.752 181.384L834.755 181.735L834.34 185.285L837.413 185.644L837.123 188.124L834.05 187.764L833.418 193.177C833.345 193.798 833.42 194.266 833.642 194.584C833.873 194.901 834.275 195.094 834.849 195.161C835.206 195.203 835.653 195.18 836.19 195.094L835.909 197.503C835.705 197.566 835.393 197.604 834.975 197.618C834.556 197.632 834.157 197.617 833.777 197.572C832.419 197.414 831.478 196.918 830.954 196.086C830.437 195.255 830.263 194.122 830.431 192.686L831.047 187.413L828.836 187.155L829.126 184.676L831.337 184.934L831.752 181.384Z" fill="white"/>
<path d="M827.158 184.446L825.768 196.341L822.893 196.005L823.132 193.957C822.674 194.579 822.035 195.071 821.214 195.431C820.394 195.784 819.495 195.903 818.517 195.789C817.369 195.654 816.366 195.254 815.508 194.587C814.649 193.921 814.024 193.085 813.63 192.079C813.236 191.073 813.106 190 813.239 188.859C813.373 187.719 813.747 186.705 814.362 185.817C814.978 184.921 815.78 184.248 816.769 183.797C817.758 183.339 818.828 183.177 819.976 183.311C820.985 183.429 821.847 183.758 822.562 184.298C823.287 184.831 823.765 185.449 823.997 186.153L824.237 184.104L827.158 184.446ZM817.556 186.65C816.804 187.302 816.366 188.155 816.242 189.21C816.119 190.266 816.345 191.193 816.92 191.992C817.503 192.791 818.322 193.253 819.377 193.376C820.41 193.497 821.315 193.253 822.094 192.644C822.873 192.035 823.328 191.171 823.459 190.054C823.589 188.937 823.342 187.988 822.718 187.207C822.101 186.427 821.281 185.977 820.256 185.857C819.209 185.735 818.309 185.999 817.556 186.65Z" fill="white"/>
<path d="M796.012 187.86C795.997 188.802 796.252 189.576 796.779 190.18C797.307 190.784 798.086 191.147 799.118 191.267C799.832 191.351 800.477 191.289 801.051 191.08C801.627 190.865 802.091 190.533 802.442 190.087L805.235 190.413C804.673 191.457 803.815 192.273 802.66 192.861C801.515 193.443 800.247 193.653 798.858 193.491C796.872 193.258 795.373 192.489 794.361 191.183C793.358 189.878 792.962 188.314 793.176 186.49C793.386 184.69 794.146 183.273 795.454 182.238C796.764 181.195 798.334 180.781 800.166 180.995C802.012 181.211 803.445 181.973 804.465 183.279C805.492 184.587 805.898 186.161 805.683 188L805.568 188.977L796.012 187.86ZM799.972 183.155C799.033 183.046 798.232 183.235 797.57 183.724C796.915 184.206 796.466 184.924 796.22 185.879L802.936 186.664C802.953 185.714 802.7 184.922 802.176 184.286C801.653 183.643 800.919 183.266 799.972 183.155Z" fill="white"/>
<path d="M785.954 179.334C787.521 179.517 788.805 180.108 789.805 181.106C790.814 182.097 791.41 183.26 791.592 184.595L788.694 184.256C788.246 182.835 787.227 182.031 785.637 181.845C784.543 181.718 783.639 181.978 782.926 182.626C782.213 183.274 781.796 184.122 781.673 185.169C781.551 186.217 781.762 187.138 782.306 187.933C782.851 188.721 783.67 189.178 784.764 189.306C786.363 189.493 787.54 188.943 788.297 187.654L791.195 187.993C790.71 189.25 789.861 190.248 788.65 190.988C787.448 191.72 786.063 191.995 784.495 191.812C783.215 191.662 782.106 191.253 781.17 190.585C780.233 189.917 779.552 189.082 779.126 188.081C778.702 187.072 778.557 185.985 778.693 184.821C778.902 183.036 779.681 181.621 781.03 180.575C782.38 179.522 784.022 179.108 785.954 179.334Z" fill="white"/>
<path d="M767.233 189.499L764.23 189.148L765.621 177.252L768.53 177.592L768.294 179.617C768.648 178.943 769.206 178.438 769.969 178.103C770.732 177.767 771.583 177.654 772.522 177.764C773.926 177.928 774.966 178.521 775.641 179.544C776.316 180.567 776.565 181.835 776.388 183.348L775.555 190.472L772.552 190.12L773.326 183.498C773.431 182.605 773.304 181.871 772.947 181.294C772.59 180.71 771.982 180.367 771.12 180.266C770.298 180.17 769.599 180.364 769.023 180.847C768.447 181.331 768.11 181.999 768.01 182.853L767.233 189.499Z" fill="white"/>
<path d="M752.69 182.796C752.674 183.738 752.93 184.511 753.457 185.116C753.984 185.72 754.764 186.082 755.796 186.203C756.51 186.287 757.154 186.224 757.729 186.016C758.305 185.8 758.768 185.469 759.12 185.022L761.913 185.349C761.351 186.392 760.492 187.208 759.338 187.797C758.192 188.379 756.925 188.589 755.536 188.426C753.55 188.194 752.051 187.425 751.039 186.119C750.035 184.814 749.64 183.25 749.853 181.426C750.064 179.626 750.823 178.208 752.132 177.174C753.442 176.131 755.012 175.717 756.843 175.931C758.69 176.147 760.123 176.908 761.142 178.215C762.169 179.523 762.575 181.096 762.36 182.935L762.246 183.913L752.69 182.796ZM756.65 178.091C755.711 177.981 754.91 178.171 754.247 178.66C753.593 179.142 753.143 179.86 752.898 180.815L759.614 181.6C759.631 180.65 759.377 179.857 758.854 179.222C758.331 178.579 757.597 178.202 756.65 178.091Z" fill="white"/>
<path d="M743.5 186.724L744.891 174.829L747.894 175.18L746.503 187.075L743.5 186.724ZM745.04 171.024C745.098 170.535 745.317 170.14 745.698 169.838C746.079 169.536 746.526 169.416 747.038 169.476C747.543 169.534 747.946 169.755 748.247 170.136C748.55 170.51 748.672 170.945 748.614 171.441C748.554 171.953 748.334 172.356 747.953 172.65C747.581 172.945 747.138 173.062 746.626 173.002C746.114 172.942 745.707 172.726 745.404 172.352C745.102 171.979 744.981 171.536 745.04 171.024Z" fill="white"/>
<path d="M742.446 177.375L741.794 177.298C740.607 177.16 739.684 177.378 739.027 177.954C738.37 178.53 737.97 179.427 737.827 180.646L737.203 185.988L734.2 185.637L735.591 173.742L738.5 174.082L738.205 176.607C738.529 175.725 739.105 175.104 739.933 174.745C740.762 174.385 741.715 174.269 742.794 174.395L742.446 177.375Z" fill="white"/>
<path d="M722.66 179.286C722.645 180.228 722.9 181.001 723.427 181.605C723.955 182.21 724.734 182.572 725.766 182.693C726.48 182.776 727.124 182.714 727.699 182.506C728.275 182.29 728.739 181.959 729.09 181.512L731.883 181.839C731.321 182.882 730.462 183.698 729.308 184.287C728.163 184.868 726.895 185.078 725.506 184.916C723.52 184.684 722.021 183.915 721.009 182.609C720.006 181.304 719.61 179.739 719.824 177.916C720.034 176.115 720.794 174.698 722.102 173.663C723.412 172.621 724.982 172.207 726.814 172.421C728.66 172.637 730.093 173.398 731.113 174.705C732.14 176.013 732.546 177.586 732.331 179.425L732.216 180.403L722.66 179.286ZM726.62 174.581C725.681 174.471 724.88 174.661 724.217 175.149C723.563 175.631 723.114 176.35 722.868 177.304L729.584 178.089C729.601 177.139 729.347 176.347 728.824 175.711C728.301 175.068 727.567 174.691 726.62 174.581Z" fill="white"/>
<path d="M706.498 187.448L703.495 187.097L705.467 170.22L708.354 170.558L708.115 172.606C708.581 171.984 709.22 171.497 710.032 171.143C710.845 170.782 711.744 170.659 712.73 170.774C713.878 170.908 714.881 171.313 715.738 171.987C716.596 172.654 717.222 173.494 717.614 174.507C718.008 175.513 718.138 176.586 718.005 177.727C717.872 178.867 717.497 179.882 716.882 180.769C716.267 181.657 715.465 182.326 714.477 182.777C713.488 183.228 712.419 183.386 711.271 183.252C710.262 183.134 709.407 182.814 708.705 182.291C708.012 181.762 707.55 181.137 707.319 180.418L706.498 187.448ZM713.678 179.923C714.437 179.28 714.879 178.431 715.002 177.376C715.125 176.32 714.892 175.388 714.302 174.58C713.72 173.773 712.901 173.307 711.846 173.184C710.83 173.065 709.928 173.314 709.14 173.929C708.36 174.546 707.904 175.413 707.774 176.531C707.643 177.648 707.887 178.593 708.504 179.365C709.13 180.138 709.951 180.584 710.967 180.703C712.023 180.826 712.926 180.566 713.678 179.923Z" fill="white"/>
<path d="M700.078 169.59L703.221 169.958L698.34 175.381L701.959 181.868L698.781 181.497L696.503 177.467L693.369 180.864L690.203 180.494L695.22 175.016L691.71 168.612L694.864 168.981L697.034 172.927L700.078 169.59Z" fill="white"/>
<path d="M680.199 174.322C680.184 175.264 680.439 176.037 680.966 176.642C681.494 177.246 682.273 177.608 683.305 177.729C684.019 177.813 684.664 177.75 685.238 177.542C685.814 177.326 686.278 176.995 686.629 176.548L689.422 176.875C688.86 177.918 688.002 178.734 686.847 179.323C685.702 179.905 684.434 180.115 683.045 179.952C681.059 179.72 679.56 178.951 678.548 177.645C677.545 176.34 677.149 174.776 677.363 172.952C677.573 171.152 678.333 169.734 679.641 168.7C680.951 167.657 682.521 167.243 684.353 167.457C686.199 167.673 687.632 168.434 688.652 169.741C689.679 171.049 690.085 172.622 689.87 174.461L689.755 175.439L680.199 174.322ZM684.159 169.617C683.22 169.507 682.419 169.697 681.757 170.186C681.102 170.668 680.653 171.386 680.407 172.341L687.123 173.126C687.14 172.176 686.887 171.383 686.363 170.748C685.84 170.105 685.106 169.728 684.159 169.617Z" fill="white"/>
<path d="M665.387 177.593L667.421 160.192L670.424 160.543L668.39 177.944L665.387 177.593Z" fill="white"/>
<path d="M663.484 165.312L662.093 177.208L659.218 176.872L659.458 174.823C659 175.446 658.36 175.938 657.539 176.298C656.719 176.651 655.821 176.77 654.843 176.655C653.694 176.521 652.691 176.121 651.833 175.454C650.975 174.787 650.349 173.951 649.955 172.946C649.562 171.94 649.431 170.867 649.565 169.726C649.698 168.585 650.072 167.571 650.687 166.684C651.303 165.788 652.106 165.115 653.094 164.664C654.084 164.206 655.153 164.044 656.301 164.178C657.31 164.296 658.172 164.625 658.888 165.164C659.612 165.697 660.09 166.316 660.323 167.019L660.562 164.971L663.484 165.312ZM653.882 167.517C653.129 168.168 652.691 169.022 652.568 170.077C652.444 171.132 652.67 172.06 653.246 172.858C653.828 173.658 654.648 174.119 655.703 174.243C656.735 174.363 657.641 174.119 658.42 173.51C659.199 172.901 659.654 172.038 659.784 170.921C659.915 169.803 659.668 168.854 659.043 168.073C658.427 167.293 657.606 166.843 656.582 166.724C655.534 166.601 654.634 166.866 653.882 167.517Z" fill="white"/>
<path d="M643.029 159.323L646.032 159.674L645.617 163.224L648.69 163.583L648.4 166.062L645.328 165.703L644.695 171.115C644.622 171.736 644.697 172.205 644.92 172.522C645.15 172.84 645.552 173.033 646.126 173.1C646.483 173.141 646.93 173.119 647.468 173.032L647.186 175.442C646.982 175.504 646.671 175.543 646.252 175.557C645.834 175.571 645.434 175.556 645.054 175.511C643.696 175.352 642.755 174.857 642.231 174.025C641.715 173.194 641.54 172.06 641.708 170.625L642.325 165.352L640.113 165.093L640.403 162.614L642.614 162.873L643.029 159.323Z" fill="white"/>
<path d="M633.949 173.918L635.34 162.022L638.342 162.373L636.952 174.269L633.949 173.918ZM635.489 158.217C635.547 157.728 635.766 157.333 636.147 157.032C636.528 156.73 636.975 156.609 637.487 156.669C637.992 156.728 638.395 156.948 638.696 157.33C638.999 157.703 639.121 158.138 639.063 158.635C639.003 159.147 638.783 159.55 638.402 159.844C638.03 160.138 637.587 160.256 637.075 160.196C636.563 160.136 636.156 159.919 635.853 159.546C635.551 159.172 635.43 158.729 635.489 158.217Z" fill="white"/>
<path d="M624.805 160.496C625.806 160.613 626.656 160.941 627.356 161.479C628.065 162.01 628.526 162.642 628.739 163.375L628.984 161.28L631.941 161.625L630.569 173.358C630.391 174.886 629.62 176.098 628.257 176.993C626.901 177.888 625.3 178.228 623.453 178.012C621.878 177.828 620.572 177.325 619.536 176.504C618.507 175.684 617.842 174.576 617.541 173.18L620.521 173.528C620.988 174.778 622.048 175.5 623.701 175.693C624.764 175.818 625.645 175.645 626.345 175.176C627.045 174.708 627.452 173.984 627.566 173.007L627.837 170.69C627.398 171.284 626.786 171.743 626.001 172.069C625.223 172.395 624.361 172.502 623.414 172.392C622.266 172.257 621.269 171.873 620.422 171.239C619.584 170.607 618.973 169.812 618.589 168.854C618.213 167.898 618.09 166.869 618.219 165.767C618.347 164.665 618.705 163.692 619.291 162.848C619.886 161.998 620.665 161.361 621.627 160.939C622.597 160.509 623.656 160.362 624.805 160.496ZM624.274 169.979C625.283 170.097 626.171 169.874 626.936 169.311C627.71 168.748 628.156 167.959 628.275 166.943C628.395 165.918 628.143 165.043 627.52 164.318C626.906 163.585 626.094 163.16 625.085 163.042C624.046 162.92 623.165 163.152 622.444 163.736C621.731 164.313 621.316 165.106 621.198 166.115C621.081 167.116 621.307 167.98 621.875 168.707C622.442 169.434 623.242 169.858 624.274 169.979Z" fill="white"/>
<path d="M611.834 171.333L613.225 159.437L616.228 159.788L614.837 171.684L611.834 171.333ZM613.374 155.632C613.432 155.143 613.651 154.748 614.032 154.446C614.413 154.145 614.86 154.024 615.372 154.084C615.877 154.143 616.28 154.363 616.581 154.744C616.884 155.118 617.006 155.553 616.948 156.05C616.888 156.562 616.668 156.965 616.287 157.259C615.915 157.553 615.472 157.671 614.96 157.611C614.448 157.551 614.041 157.334 613.738 156.961C613.436 156.587 613.315 156.144 613.374 155.632Z" fill="white"/>
<path d="M607.467 153.183L610.47 153.534L608.435 170.935L605.56 170.599L605.8 168.551C605.342 169.174 604.702 169.665 603.881 170.026C603.061 170.378 602.163 170.497 601.185 170.383C600.036 170.249 599.033 169.848 598.175 169.182C597.317 168.515 596.691 167.679 596.297 166.673C595.904 165.667 595.774 164.594 595.907 163.454C596.04 162.313 596.414 161.299 597.029 160.411C597.645 159.516 598.448 158.842 599.436 158.392C600.426 157.933 601.495 157.771 602.643 157.905C603.644 158.022 604.492 158.346 605.185 158.875C605.878 159.404 606.344 160.025 606.583 160.737L607.467 153.183ZM600.224 161.245C599.471 161.896 599.033 162.749 598.91 163.805C598.786 164.86 599.012 165.787 599.588 166.586C600.171 167.385 600.99 167.847 602.045 167.97C603.077 168.091 603.983 167.847 604.762 167.238C605.541 166.629 605.996 165.766 606.126 164.648C606.257 163.531 606.01 162.582 605.386 161.801C604.769 161.021 603.948 160.571 602.924 160.451C601.876 160.329 600.976 160.593 600.224 161.245Z" fill="white"/>
</svg>
